<svg width="83" height="83" viewBox="0 0 83 83" fill="none" xmlns="http://www.w3.org/2000/svg">
<g clip-path="url(#clip0_18_1719)">
<path d="M29.974 0.32407C28.6123 1.03735 27.8828 2.43149 27.8828 4.27954V5.18735H14.298C0.842968 5.18735 0.71328 5.18735 0.35664 5.51157C-0.178321 6.01411 -0.129688 7.00298 0.421484 7.44067C0.859179 7.7811 0.940234 7.7811 14.3629 7.7811H27.8828V14.5897V21.3983H17.0215H6.14394L5.75488 21.8036C5.21992 22.3223 5.21992 23.068 5.75488 23.5868L6.14394 23.992H17.0215H27.8828V25.9374V27.8827H25.2404C22.8088 27.8827 22.5656 27.9151 22.2414 28.2069C21.7064 28.7094 21.7551 29.6983 22.3062 30.136C22.6953 30.444 22.9547 30.4764 25.3053 30.4764H27.8828V32.4217V34.367H17.0215H6.14394L5.75488 34.7723C5.21992 35.2911 5.21992 36.0368 5.75488 36.5555L6.14394 36.9608H17.0053H27.8666L27.9152 40.2516L27.9639 43.5586L28.4502 44.3368C29.2932 45.6985 31.1574 46.2821 32.6326 45.6499C32.9244 45.5364 35.4533 43.8504 38.2578 41.9213C41.0623 39.9922 43.4939 38.4198 43.656 38.4198C43.8019 38.4198 46.1687 39.9598 48.9246 41.8403C51.6642 43.737 54.1607 45.4067 54.4687 45.5688C55.6359 46.201 57.5488 45.8768 58.4728 44.8717C59.2348 44.0612 59.332 43.51 59.332 40.1219V36.9608H63.2226H67.1295L67.5185 36.5555C68.0535 36.0368 68.0535 35.2911 67.5185 34.7723L67.1295 34.367H63.2226H59.332V32.4217V30.4764H63.2226H67.1295L67.5185 30.0711C68.0535 29.5524 68.0535 28.8067 67.5185 28.2879L67.1295 27.8827H63.2226H59.332V25.9374V23.992H63.2226H67.1295L67.5185 23.5868C68.0535 23.068 68.0535 22.3223 67.5185 21.8036L67.1295 21.3983H63.2226H59.332V14.5897V7.7811H66.6107C73.0951 7.7811 73.9057 7.81352 73.9867 8.04048C74.0353 8.18637 74.084 13.9413 74.084 20.8471C74.084 33.1836 74.084 33.3944 74.4082 33.7186C74.8459 34.1563 75.7537 34.1563 76.1914 33.7186C76.5156 33.3944 76.5156 33.1836 76.5156 23.8299V14.2655H78.4447C80.0496 14.2655 80.39 14.3141 80.4711 14.5249C80.5197 14.6707 80.5684 25.6131 80.5684 38.8413C80.5684 62.6875 80.5684 62.8983 80.8926 63.2225C81.3303 63.6602 82.2381 63.6602 82.6758 63.2225C83 62.8983 83 62.6875 83 38.2901V13.6981L82.6271 13.0659C82.4002 12.6606 81.9949 12.2877 81.5572 12.0446C80.9088 11.7041 80.6332 11.6717 78.6717 11.6717H76.5156V9.43462C76.5156 7.44067 76.467 7.14888 76.1428 6.58149C75.9158 6.17622 75.5105 5.80337 75.0728 5.5602L74.3596 5.18735H66.8377H59.332V3.98774C59.332 2.48013 58.7808 1.31294 57.7271 0.567234L57.0301 0.0809059L51.3076 0.0322723L45.5689 -0.0163574L45.2447 0.356491C44.807 0.810398 44.807 1.62094 45.2285 2.07485C45.5527 2.43149 45.6338 2.43149 50.4809 2.43149C55.5387 2.43149 56.2682 2.51255 56.5762 3.07993C56.6734 3.27446 56.7383 10.5694 56.7383 23.1491C56.7383 44.6124 56.7869 43.429 55.8953 43.2506C55.6846 43.202 53.2691 41.6295 50.4971 39.7167C47.7412 37.82 45.2447 36.1665 44.9529 36.053C44.191 35.7288 42.8131 35.7612 42.1322 36.134C41.808 36.3124 39.3115 37.9821 36.5719 39.8625C33.4269 42.0348 31.4654 43.2831 31.2061 43.2831C30.9791 43.2831 30.7359 43.1534 30.6387 42.975C30.5252 42.7643 30.4766 36.2475 30.4766 23.0356V3.42036L30.8656 2.96645L31.2547 2.51255L36.2152 2.46391L41.1596 2.41528L41.5 1.9938C41.9215 1.45884 41.9053 0.972507 41.4838 0.421337L41.1596 -0.000148773H35.8586C30.9467 0.0160637 30.509 0.0322723 29.974 0.32407Z" fill="white"/>
<path d="M42.959 10.9748C42.4078 11.1693 42.0674 11.6881 40.9813 13.8604C40.349 15.1086 39.8141 16.1623 39.7817 16.1947C39.733 16.2434 35.0967 16.9891 34.659 17.0215C34.6104 17.0215 34.3348 17.216 34.0592 17.443C33.5242 17.8807 33.2811 18.675 33.4756 19.3234C33.5404 19.518 34.4645 20.5717 35.5182 21.6416L37.4311 23.5869L37.0096 26.0996C36.5233 29.0176 36.5719 29.5363 37.4311 30.1037C37.7391 30.3145 38.2092 30.4766 38.4686 30.4766C38.7604 30.4766 39.8951 29.9902 41.2893 29.2607L43.6236 28.0287L46.0067 29.277C48.1141 30.3631 48.4707 30.4928 49.0381 30.4117C49.492 30.3631 49.8162 30.1848 50.1404 29.8281C50.7078 29.1959 50.7078 28.5475 50.1891 25.6457L49.8162 23.5059L51.6156 21.7713C52.6045 20.8311 53.4961 19.907 53.6096 19.7125C54.0473 18.9668 53.7069 17.5564 53.026 17.1998C52.8639 17.1025 51.7129 16.8756 50.4809 16.6973C49.2326 16.5189 48.0654 16.3244 47.8709 16.292C47.5953 16.2271 47.2225 15.6273 46.2822 13.7793C45.3258 11.8988 44.9367 11.2828 44.5801 11.1045C44.11 10.8613 43.4129 10.8127 42.959 10.9748ZM44.5801 16.3893C45.0664 17.3781 45.5852 18.2859 45.7311 18.4156C45.8932 18.5615 46.7199 18.7723 47.5953 18.8857C48.4869 19.0154 49.4434 19.1613 49.7514 19.2262L50.2863 19.3072L48.7301 20.8959C47.3846 22.2738 47.1738 22.5656 47.1738 23.0357C47.1738 23.5221 47.4981 25.5809 47.7574 26.8129L47.8547 27.2668L45.9904 26.2779C44.9205 25.7105 43.9317 25.2891 43.6561 25.2891C43.3967 25.2891 42.4078 25.6943 41.4352 26.1969C40.4787 26.6994 39.652 27.0723 39.6033 27.0236C39.5547 26.975 39.6682 26.0186 39.8627 24.9162C40.0572 23.7977 40.2031 22.8412 40.2031 22.7764C40.2031 22.6953 39.4574 21.901 38.5496 20.977C37.6418 20.0529 36.9447 19.291 37.0096 19.291C37.4149 19.291 40.7057 18.7561 41.1434 18.6264C41.6135 18.4643 41.7756 18.2373 42.6024 16.5352C43.1049 15.4652 43.5588 14.6061 43.6074 14.5898C43.6561 14.5898 44.0938 15.4004 44.5801 16.3893Z" fill="white"/>
<path d="M5.75488 28.2881C5.49551 28.5312 5.34961 28.8717 5.34961 29.1797C5.34961 29.4877 5.49551 29.8281 5.75488 30.0713L6.14395 30.4766H12.3689C18.4318 30.4766 18.6102 30.4604 19.0316 30.1361C19.599 29.6984 19.6152 28.742 19.0803 28.2395C18.7074 27.8828 18.6426 27.8828 12.4176 27.8828H6.14395L5.75488 28.2881Z" fill="white"/>
<path d="M74.5055 37.4632L74.084 37.7875V60.1261C74.084 81.557 74.1002 82.481 74.3758 82.7242C74.7973 83.097 75.8996 83.0808 76.24 82.708C76.4994 82.4324 76.5156 80.633 76.5156 60.0937V37.7875L76.0941 37.4632C75.851 37.2687 75.4943 37.1228 75.2998 37.1228C75.1053 37.1228 74.7486 37.2687 74.5055 37.4632Z" fill="white"/>
<path d="M5.75488 41.2568C5.49551 41.5 5.34961 41.8404 5.34961 42.1484C5.34961 42.4564 5.49551 42.7969 5.75488 43.04L6.14395 43.4453H13.5686C21.5443 43.4291 21.3822 43.4453 21.7064 42.5861C21.9172 42.0674 21.6578 41.2406 21.2363 41.0137C21.0418 40.9164 18.059 40.8516 13.5361 40.8516H6.14395L5.75488 41.2568Z" fill="white"/>
<path d="M5.75488 55.3604C5.49551 55.6035 5.34961 55.9439 5.34961 56.252C5.34961 56.56 5.49551 56.9004 5.75488 57.1436L6.14395 57.5488H22.8574H39.5709L39.96 57.1436C40.4949 56.6248 40.4949 55.8791 39.96 55.3604L39.5709 54.9551H22.8574H6.14395L5.75488 55.3604Z" fill="white"/>
<path d="M43.04 55.3604C42.7807 55.6035 42.6348 55.9439 42.6348 56.252C42.6348 56.56 42.7807 56.9004 43.04 57.1436L43.4291 57.5488H55.2793H67.1295L67.5186 57.1436C67.7779 56.9004 67.9238 56.56 67.9238 56.252C67.9238 55.9439 67.7779 55.6035 67.5186 55.3604L67.1295 54.9551H55.2793H43.4291L43.04 55.3604Z" fill="white"/>
<path d="M5.75488 61.8447C5.49551 62.0879 5.34961 62.4283 5.34961 62.7363C5.34961 63.0443 5.49551 63.3848 5.75488 63.6279L6.14395 64.0332H32.3408H58.5377L58.9268 63.6279C59.4617 63.1092 59.4617 62.3635 58.9268 61.8447L58.5377 61.4395H32.3408H6.14395L5.75488 61.8447Z" fill="white"/>
<path d="M81.3789 66.7403C81.2492 66.7889 81.0061 66.9348 80.8602 67.0807C80.5846 67.3077 80.5684 67.8913 80.5684 74.8944C80.5684 83.4376 80.5035 82.9999 81.8166 82.9999C83.0486 82.9999 83 83.3565 83 74.862C83 67.8913 82.9838 67.3077 82.7244 67.0645C82.384 66.7727 81.7193 66.6106 81.3789 66.7403Z" fill="white"/>
<path d="M5.75488 68.3291C5.49551 68.5723 5.34961 68.9127 5.34961 69.2207C5.34961 69.5287 5.49551 69.8691 5.75488 70.1123L6.14395 70.5176H11.6719C14.8979 70.5176 17.3295 70.4527 17.4916 70.3555C17.9941 70.0961 18.2373 69.3018 17.9941 68.7344C17.8807 68.4588 17.6537 68.167 17.4916 68.0859C17.3295 67.9887 14.8979 67.9238 11.6719 67.9238H6.14395L5.75488 68.3291Z" fill="white"/>
<path d="M20.8473 68.2643C20.523 68.5236 20.4258 68.7344 20.4258 69.2207C20.4258 69.707 20.523 69.9178 20.8473 70.1771L21.285 70.5176H44.2072H67.1295L67.5186 70.1123C67.7779 69.8691 67.9238 69.5287 67.9238 69.2207C67.9238 68.9127 67.7779 68.5723 67.5186 68.3291L67.1295 67.9238H44.2072H21.285L20.8473 68.2643Z" fill="white"/>
<path d="M5.75488 74.8135C5.49551 75.0566 5.34961 75.3971 5.34961 75.7051C5.34961 76.0131 5.49551 76.3535 5.75488 76.5967L6.14395 77.002H29.5039C44.1586 77.002 52.9773 76.9371 53.1557 76.8398C53.3178 76.7588 53.5447 76.467 53.6582 76.1914C53.9014 75.624 53.6582 74.8297 53.1557 74.5703C52.9773 74.473 44.1586 74.4082 29.5039 74.4082H6.14395L5.75488 74.8135Z" fill="white"/>
<path d="M56.5113 74.7486C55.9115 75.2188 55.9115 76.1914 56.5113 76.6615C56.9328 76.9857 57.1273 77.002 62.0392 77.002H67.1295L67.5185 76.5967C67.7779 76.3535 67.9238 76.0131 67.9238 75.7051C67.9238 75.3971 67.7779 75.0566 67.5185 74.8135L67.1295 74.4082H62.0392C57.1273 74.4082 56.9328 74.4244 56.5113 74.7486Z" fill="white"/>
</g>
<defs>
<clipPath id="clip0_18_1719">
<rect width="83" height="83" fill="white"/>
</clipPath>
</defs>
</svg>
