<svg width="83" height="83" viewBox="0 0 83 83" fill="none" xmlns="http://www.w3.org/2000/svg">
<g id="Frame">
<g id="Group">
<path id="Vector" d="M40.1058 0.259407C37.3338 0.713314 32.9244 2.51273 31.4978 3.77718C30.6386 4.52288 30.7845 5.62523 31.8058 5.98187C32.2759 6.14398 32.4381 6.11155 33.2324 5.67386C37.4634 3.33949 40.122 2.57757 44.0937 2.57757C53.3502 2.57757 61.3259 9.143 63.3037 18.3994C64.5681 24.3326 62.6552 30.9953 58.3107 35.7614L57.4029 36.7502L56.0574 36.8475C53.7068 36.9934 51.8588 37.9823 50.7726 39.6682C50.0107 40.8516 49.7351 41.7594 49.6865 43.2508L49.6541 44.6125L45.9418 48.9246C40.1382 55.6684 40.3652 55.3766 40.3652 56.0412C40.3652 56.56 40.5111 56.7869 41.6297 57.9055C42.6834 58.943 42.9914 59.1699 43.4129 59.1699C43.964 59.1699 43.8019 59.2996 50.9996 53.2043L54.8902 49.8973L56.2519 49.8649C59.5427 49.7514 61.9582 47.7412 62.6552 44.5315L62.7525 44.0614L65.784 44.1262C68.7019 44.1748 68.8478 44.191 69.6259 44.6125C72.1224 45.9418 73.2734 48.8598 72.317 51.3887C71.8793 52.5235 70.9715 53.5772 69.9339 54.177C68.9775 54.7119 68.7343 55.02 68.7343 55.6846C68.7343 56.2196 69.4152 56.9004 69.9502 56.9004C70.1771 56.9004 70.7121 56.7221 71.1336 56.5114C73.6625 55.2145 75.2349 52.491 75.2349 49.4434C75.2349 46.0553 73.3545 43.2832 70.1771 41.9539C69.3828 41.6297 68.9775 41.5973 65.8974 41.5325L62.4931 41.4676L62.0879 40.5598C61.8609 40.041 61.3097 39.2467 60.8558 38.7604L60.0129 37.9012L61.1638 36.4584C65.5246 31.0602 67.1781 24.3651 65.8164 17.6862C65.4111 15.676 64.8761 14.1684 63.8548 12.142L63.0767 10.5858L63.709 10.3912C64.0656 10.294 64.4222 10.067 64.5195 9.8887C64.7789 9.38617 64.6978 8.67288 64.325 8.28382C64.0007 7.92718 63.8873 7.91097 62.5904 7.99202C61.2611 8.07308 61.18 8.05687 60.9045 7.68402C60.6289 7.31116 60.6289 7.27874 61.2773 6.01429C62.0554 4.45804 62.1041 3.89066 61.5043 3.42054C60.6127 2.70726 59.8507 3.03148 59.1537 4.3932L58.6673 5.38206L58.1486 4.96058C55.1009 2.54515 51.4535 0.875423 47.7574 0.243195C45.9742 -0.0648117 41.9377 -0.0485992 40.1058 0.259407ZM58.1162 39.96C61.2125 41.7594 60.5316 46.3471 57.0625 47.1739C53.8527 47.9358 51.1617 44.418 52.7504 41.5325C53.8527 39.5385 56.2195 38.8414 58.1162 39.96ZM51.567 48.0006C52.1181 48.5518 52.1992 48.6977 52.0209 48.876C51.8912 48.9733 50.0756 50.5133 47.9843 52.2803C45.8931 54.0473 43.9965 55.6522 43.7857 55.8305C43.575 56.025 43.4291 56.0899 43.4615 55.9764C43.5263 55.7819 50.7564 47.336 50.8537 47.336C50.8861 47.336 51.1941 47.6278 51.567 48.0006Z" fill="white"/>
<path id="Vector_2" d="M26.9587 7.82988C24.5757 10.4236 22.6142 14.6871 21.9496 18.8047C21.6091 20.8797 21.7226 25.1107 22.1927 27.0723C23.5544 32.892 26.8777 37.6904 31.7734 40.9164L32.665 41.5H27.2829H21.9171L20.8634 38.3389L19.7935 35.1615L20.2312 34.2375C21.1066 32.3246 20.8472 29.585 19.599 27.7855C17.8158 25.1918 14.2007 24.3164 11.2503 25.7754C7.40834 27.6559 6.53295 33.0379 9.56439 36.1504C10.3101 36.9123 12.0609 37.9336 12.6445 37.9336C12.7904 37.9336 13.4064 38.9549 14.2331 40.5436L15.5787 43.1373L14.8329 43.9803C14.4115 44.4342 13.8603 45.2447 13.6009 45.7635L13.1146 46.7037L12.5472 46.2174C11.8826 45.6176 11.2503 45.5689 10.6343 46.0553C9.93725 46.6064 10.0507 47.3359 10.9747 48.3248C11.38 48.7625 11.688 49.1516 11.6556 49.184C11.6232 49.2164 11.1369 49.4596 10.6019 49.7352C9.30502 50.3998 9.07807 50.6268 9.07807 51.3887C9.07807 51.875 9.17533 52.0857 9.49955 52.3451C10.0831 52.8152 10.4236 52.7828 11.688 52.1182C12.9201 51.4859 12.9687 51.4697 12.9687 51.7453C12.9687 52.2479 13.9576 53.9824 14.7357 54.8254C15.7083 55.8953 16.7458 56.5924 18.0913 57.0949C18.9992 57.4354 19.3558 57.4516 24.6081 57.5164C27.6558 57.5488 30.1523 57.6299 30.1523 57.6947C30.1523 57.873 26.4238 66.2055 26.2617 66.3514C26.1482 66.4811 23.7328 64.9248 23.3923 64.4871C23.2951 64.3736 23.1816 63.9684 23.1167 63.5793C23.0033 62.8012 22.3872 61.4881 21.755 60.6775C21.1552 59.8832 19.6152 58.9268 18.4156 58.6025C15.6921 57.8568 12.7417 59.024 11.2017 61.4232C10.5857 62.3797 10.5533 63.093 11.1044 63.6279C11.8015 64.3412 12.7579 64.1143 13.2767 63.093C13.6495 62.3797 14.298 61.7475 15.0761 61.3422C15.8704 60.9369 17.5402 60.9369 18.3669 61.3422C20.7499 62.5256 21.3822 65.5408 19.6476 67.4699C18.0589 69.2369 15.7894 69.3018 13.9413 67.6482C13.2929 67.0646 12.9687 66.8863 12.5472 66.8863C11.7853 66.8863 11.3476 67.3402 11.3476 68.1184C11.3476 68.6209 11.4773 68.8803 11.996 69.4477C13.6333 71.2146 16.8107 71.9604 18.9343 71.085C19.4531 70.858 19.5179 70.8742 21.4632 71.8469L23.441 72.8357L23.3761 74.6352C23.3113 76.1752 23.3599 76.5805 23.6679 77.4883C24.138 78.8662 24.6892 79.7902 25.6294 80.7305C27.1695 82.2705 28.9851 83 31.3033 83C33.0865 83 34.4968 82.5785 35.8585 81.6545C37.5283 80.5197 38.0956 79.5957 40.6083 73.9381C42.1646 70.4365 42.9913 68.7668 43.2669 68.5398C43.7533 68.167 44.5152 68.248 44.9204 68.7182C45.0663 68.8965 46.1525 71.2146 47.3197 73.8732C48.5031 76.5318 49.6865 79.0445 49.9458 79.466C50.6753 80.6008 51.9074 81.6545 53.2691 82.3029C54.3552 82.8217 54.6794 82.9027 56.0898 82.9676C57.9703 83.0486 58.9915 82.8541 60.4829 82.0922C63.2226 80.6656 64.8599 77.6666 64.6329 74.5055C64.5843 73.7922 64.4222 72.8844 64.2925 72.4953L64.0494 71.8145H64.6167C65.3787 71.8145 65.7515 71.5875 65.946 71.0039C66.1568 70.4203 65.9298 69.6422 65.5245 69.4477C65.3787 69.3828 64.714 69.2855 64.0494 69.2369C63.3847 69.1883 62.8173 69.0586 62.7849 68.9613C62.7525 68.8641 63.0281 68.6533 63.3847 68.4912C64.6654 67.9076 65.0544 66.8215 64.2763 66.0596C63.7738 65.5408 63.174 65.5408 62.2986 66.0434L61.6339 66.4324L59.6886 62.023L57.7595 57.6299L61.3583 57.5488C64.6167 57.4678 65.0058 57.4354 65.3138 57.1598C65.7677 56.7383 65.7839 55.7332 65.33 55.2793C65.022 54.9713 64.7951 54.9551 60.0615 54.9551C55.3279 54.9551 55.1009 54.9713 54.7929 55.2793C54.4687 55.6035 54.4038 55.8629 54.4687 56.4789C54.4849 56.6572 56.187 60.5965 58.2458 65.2328L62.0068 73.6787V75.0566C62.0068 76.2562 61.9419 76.548 61.5204 77.3748C59.8345 80.7467 55.4738 81.46 52.8476 78.8014C52.0046 77.9422 51.8263 77.6018 49.6865 72.7061C47.7574 68.3129 47.3197 67.4213 46.7361 66.8377C45.2122 65.2977 42.6023 65.3301 41.1595 66.9025C40.6083 67.4861 40.4787 67.7293 38.047 73.2248C36.9285 75.7537 35.8099 78.0719 35.5667 78.3961C34.1078 80.309 31.3033 80.9736 29.1148 79.9523C27.1695 79.0283 26.0996 77.4559 25.9699 75.3322L25.8888 74.0678L29.0013 75.6078C31.0601 76.6453 32.2759 77.1641 32.6326 77.1641C33.281 77.1641 33.589 76.8723 34.513 75.2674C35.0642 74.3434 35.1939 73.9867 35.1453 73.4842C35.0966 72.8844 35.0318 72.8195 31.8544 70.55C30.0712 69.2855 28.596 68.1832 28.5636 68.1021C28.5312 68.0211 29.6497 65.4111 31.0439 62.2824C32.438 59.1375 33.5566 56.3979 33.5566 56.1385C33.5566 55.8467 33.4107 55.5225 33.1837 55.3117C32.8271 54.9713 32.6974 54.9713 26.1806 54.9227L19.5341 54.874L18.5615 54.4201C15.7083 53.0908 14.5087 49.9621 15.8056 47.2549C16.2109 46.3795 16.7945 45.5852 16.9079 45.7148C16.9566 45.7635 17.5402 46.8982 18.221 48.26C18.9019 49.6217 19.5828 50.8051 19.7611 50.9023C19.9394 50.9834 20.2798 51.0645 20.5392 51.0645C21.1228 51.0645 23.6841 50.0107 23.9597 49.6541C24.2839 49.2164 24.1867 48.5031 23.5058 46.3633C23.1492 45.2447 22.8574 44.2883 22.8574 44.2072C22.8574 44.1424 25.8564 44.0938 29.5038 44.0938C36.8636 44.0938 37.0419 44.0775 37.5283 43.1049C37.8363 42.5375 37.7876 41.5 37.4472 41.0947C37.3337 40.9488 36.4259 40.4463 35.437 39.96C30.59 37.5607 26.9912 33.4594 25.289 28.4016C23.2951 22.4521 24.3974 15.5625 28.1259 10.602C29.6984 8.54316 29.7632 8.31621 29.1634 7.5543C28.904 7.23008 28.6933 7.13281 28.2232 7.13281C27.7044 7.13281 27.4937 7.24628 26.9587 7.82988ZM16.0812 28.1422C17.832 29.0338 18.6587 31.3682 17.8482 33.1514C17.4591 34.0268 16.2271 35.0805 15.3193 35.3398C13.6495 35.81 11.8501 35.1129 10.9423 33.6539C10.5046 32.9406 10.456 32.7137 10.456 31.5303C10.456 30.3631 10.5046 30.1361 10.8937 29.5525C12.1095 27.7207 14.1359 27.1695 16.0812 28.1422ZM19.5017 42.651C20.4744 45.6014 21.2201 48.0492 21.1876 48.0816C21.1552 48.1303 19.9394 45.877 18.5128 43.0887L15.9029 38.0146L16.6648 37.658C17.0863 37.4635 17.5078 37.3014 17.5888 37.3014C17.6861 37.3014 18.5453 39.7006 19.5017 42.651ZM27.4937 70.7121C30.0226 72.4953 32.0652 74.0029 32.0328 74.0516C31.9679 74.1164 22.0954 69.3342 21.9171 69.1559C21.8847 69.1234 22.0468 68.7992 22.2738 68.4264C22.5007 68.0697 22.6953 67.6969 22.6953 67.5996C22.6953 67.5186 22.7439 67.4375 22.7925 67.4375C22.8412 67.4375 24.9486 68.9127 27.4937 70.7121Z" fill="white"/>
<path id="Vector_3" d="M29.9253 14.0226C28.6933 14.4603 27.8827 15.3357 27.5423 16.6001C27.1856 17.9132 27.5909 19.1939 28.7419 20.3773L29.4065 21.0743L28.7419 21.7552C27.7692 22.7765 27.4936 23.4087 27.4936 24.6407C27.4936 25.9052 27.8989 26.7968 28.8067 27.5425C30.3144 28.7907 32.2921 28.6448 33.8159 27.2021L34.6913 26.3915L35.5829 27.2021C37.2202 28.6935 39.2142 28.7907 40.7218 27.429C41.5647 26.6671 41.9862 25.7755 41.9862 24.6732C41.9862 23.5384 41.6458 22.7765 40.7218 21.8363L39.9761 21.0743L40.7218 20.2962C41.6134 19.4046 41.9862 18.6103 41.9862 17.6376C41.9862 16.4218 41.6782 15.6923 40.8677 14.898C39.2628 13.3417 37.1392 13.4228 35.3884 15.1249L34.7075 15.7734L33.8321 14.979C32.5677 13.828 31.3194 13.52 29.9253 14.0226ZM35.4532 20.2962C39.6519 24.4948 39.7653 24.6407 39.0358 25.4027C38.3063 26.1808 38.1442 26.0511 33.9294 21.8363C31.0925 19.0155 29.9901 17.7997 29.9901 17.5404C29.9901 17.0702 30.671 16.3732 31.1573 16.3732C31.4167 16.3732 32.6487 17.5079 35.4532 20.2962ZM38.971 16.7136C39.6032 17.2161 39.5384 17.7997 38.744 18.5616L38.0956 19.1939L37.3175 18.432L36.5556 17.6538L37.2364 17.0216C38.0145 16.2921 38.355 16.2273 38.971 16.7136ZM32.0976 23.7491L32.8108 24.4786L32.1786 25.1271C31.7895 25.5161 31.4005 25.7755 31.1735 25.7755C30.7034 25.7755 29.9901 25.0946 29.9901 24.6407C29.9901 24.3327 31.0276 23.0196 31.2708 23.0196C31.3356 23.0196 31.7085 23.3439 32.0976 23.7491Z" fill="white"/>
<path id="Vector_4" d="M47.6601 13.9252C46.4605 14.298 45.7634 14.914 45.2446 16.0488C44.5962 17.4754 44.888 18.8857 46.1038 20.215L46.8982 21.0904L46.2335 21.7713C44.5476 23.5058 44.4665 25.6457 46.039 27.2506C47.5304 28.7906 49.6702 28.7744 51.3399 27.2019L52.1991 26.3752L53.0583 27.2019C54.728 28.7744 56.8355 28.7906 58.3755 27.2506C59.9155 25.7267 59.8993 23.6842 58.3269 21.9658L57.5163 21.0742L58.3269 20.1988C59.8993 18.5453 59.9155 16.4541 58.3917 14.9302C56.803 13.3416 54.6632 13.4064 52.8962 15.1248L52.2153 15.7732L51.3399 14.9789C50.1728 13.909 48.9083 13.5523 47.6601 13.9252ZM49.654 17.0215L50.3349 17.6537L49.5567 18.4318L48.7786 19.2099L48.1464 18.5291C47.4007 17.7347 47.3358 17.3295 47.9032 16.7783C48.4544 16.2109 48.8597 16.2758 49.654 17.0215ZM56.495 16.7783C56.722 16.989 56.9003 17.3295 56.9003 17.5402C56.9003 18.0752 49.2001 25.7754 48.6651 25.7754C48.195 25.7754 47.498 25.0945 47.498 24.6082C47.498 24.3488 48.6003 23.133 51.4372 20.3123C54.2579 17.4754 55.4737 16.373 55.7331 16.373C55.9439 16.373 56.2843 16.5513 56.495 16.7783ZM56.3167 23.6679C56.9814 24.4136 57.0462 24.8675 56.5437 25.4025C56.0411 25.9375 55.5224 25.8726 54.7442 25.1431L54.0634 24.4947L54.7929 23.7652C55.1819 23.3599 55.5548 23.0195 55.6196 23.0195C55.6845 23.0195 55.9925 23.3113 56.3167 23.6679Z" fill="white"/>
<path id="Vector_5" d="M33.5404 31.4167C32.7947 31.8058 30.6872 33.4917 30.4765 33.8808C30.2333 34.3509 30.282 34.7724 30.6548 35.2425C31.206 35.9396 31.9841 35.8261 33.2324 34.8696C33.7997 34.4157 34.3185 34.0915 34.3833 34.1401C34.4644 34.1726 34.8697 34.821 35.3236 35.5505C36.2314 37.0743 36.5394 37.3985 37.2527 37.5931C38.0632 37.8362 38.7765 37.5606 41.4189 36.0044C42.7968 35.1939 43.9478 34.5292 43.9964 34.5292C44.0288 34.5292 45.2447 35.2263 46.6874 36.0855C48.8435 37.3499 49.4271 37.6417 49.9783 37.6417C51.0644 37.6579 51.5993 37.2689 52.5072 35.7937C52.9611 35.048 53.3988 34.3509 53.4798 34.2212C53.5933 34.0591 53.8527 34.1888 54.6956 34.8372C55.879 35.7288 56.5113 35.8747 57.1921 35.4046C57.4677 35.2101 57.5488 34.9993 57.5488 34.4481C57.5488 33.7349 57.5325 33.7024 56.1546 32.6325C54.5497 31.3519 53.9013 31.0439 53.107 31.1898C52.2802 31.3519 51.8587 31.7571 50.8861 33.3782C50.3997 34.1888 49.962 34.8534 49.8972 34.8534C49.8324 34.8534 48.7949 34.2698 47.579 33.5403C44.9204 31.9679 44.3531 31.7085 43.6884 31.822C43.4128 31.8706 42.0511 32.5677 40.6407 33.3944C39.2304 34.2212 38.047 34.8534 38.0146 34.821C37.9659 34.7886 37.512 34.0753 36.9933 33.2323C35.6964 31.1735 34.8697 30.7358 33.5404 31.4167Z" fill="white"/>
</g>
</g>
</svg>
