<svg width="24" height="24" viewBox="0 0 24 24" fill="none" xmlns="http://www.w3.org/2000/svg">
<path fill-rule="evenodd" clip-rule="evenodd" d="M15.4246 14.4246C16.4094 13.2187 17 11.6783 17 10C17 6.13401 13.866 3 10 3C6.13401 3 3 6.13401 3 10C3 13.866 6.13401 17 10 17C11.6783 17 13.2187 16.4094 14.4245 15.4246L15 16.0001V17L19 21L21 19L17 15H16L15.4246 14.4246ZM10 15C12.7614 15 15 12.7614 15 10C15 7.23858 12.7614 5 10 5C7.23858 5 5 7.23858 5 10C5 12.7614 7.23858 15 10 15Z" fill="#F9F9F9"/>
</svg>
