<svg width="83" height="83" viewBox="0 0 83 83" fill="none" xmlns="http://www.w3.org/2000/svg">
<g id="Frame" clip-path="url(#clip0_18_1743)">
<g id="Group">
<path id="Vector" d="M30.0713 0.113426C23.4248 0.923973 17.4429 3.40424 12.4824 7.40835C11.0234 8.59174 8.44587 11.1855 7.27869 12.6445C3.61501 17.2322 1.0699 23.1492 0.259351 29.0013C-0.0810791 31.4167 -0.0810791 36.1017 0.259351 38.4685C2.09119 51.1941 10.9099 61.7312 23.1006 65.7353C29.3094 67.7941 36.4746 67.9724 42.6996 66.2378L44.1424 65.8326L44.0451 66.6107C43.7047 69.5287 45.2771 72.398 47.9519 73.7111C49.1515 74.3109 49.2326 74.3271 50.9672 74.3271C52.6531 74.3271 52.8314 74.2947 53.8851 73.8083C54.6308 73.4355 55.3765 72.9005 56.1871 72.1062L57.3867 70.939L62.7039 76.2076C68.4263 81.8814 68.783 82.1732 71.0849 82.7568C72.317 83.0648 74.7162 83.0648 75.932 82.7568C78.1367 82.1732 80.1793 80.7304 81.4275 78.8175C82.6271 77.0019 82.9189 75.9806 82.9189 73.5166C82.9189 71.6037 82.8703 71.2957 82.465 70.1609C82.2056 69.48 81.8652 68.7992 81.6869 68.6371C81.2654 68.2642 80.3576 68.2642 79.9361 68.6371C79.4011 69.1234 79.3849 69.6259 79.8713 70.7121C80.2765 71.6199 80.3252 71.9279 80.3252 73.5166C80.3252 75.1863 80.2927 75.3646 79.8064 76.4021C79.1256 77.8449 77.8449 79.1255 76.4021 79.8064C75.3646 80.2927 75.1863 80.3251 73.5004 80.3251C71.7658 80.3251 71.6847 80.3089 70.5013 79.7253C69.399 79.1742 68.864 78.6878 64.2763 74.0839L59.251 69.0585L64.1629 64.1628L69.0586 59.2509L72.9816 63.174C75.1539 65.3138 77.083 67.1294 77.2937 67.1943C78.1043 67.4375 78.9472 66.708 78.9472 65.7677C78.9472 65.5408 77.699 64.1628 74.9431 61.407L70.939 57.4029L72.1062 56.1871C72.9006 55.3765 73.4355 54.6308 73.8084 53.8851C74.2947 52.8314 74.3271 52.6531 74.3271 50.9833C74.3271 49.3136 74.2947 49.1353 73.8246 48.1302C72.5601 45.4554 70.3392 44.0775 67.3402 44.0775H65.8488L66.2379 42.6671C67.097 39.5709 67.3402 37.6255 67.3402 33.7998C67.3564 29.8605 67.2267 28.8554 66.3676 25.2728L65.784 22.9222L66.3838 19.9232C67.0484 16.6648 67.0646 15.8218 66.4972 14.5412C66.1082 13.6496 65.1031 12.6121 64.1629 12.1419C63.2875 11.688 61.4881 11.5583 60.4668 11.8664L59.7373 12.0933L58.1324 10.4236C55.182 7.34351 52.2803 5.20366 48.5842 3.38804C45.115 1.7021 41.5486 0.632179 37.7715 0.162056C36.507 0.0161591 31.1898 -0.0324707 30.0713 0.113426ZM39.8465 3.14487C44.8881 4.231 49.3136 6.30601 53.1556 9.4185C54.7281 10.683 57.0301 12.9039 56.8842 13.0173C56.8517 13.0498 55.717 13.455 54.3877 13.8927L51.956 14.7033L50.8213 13.7468C47.3845 10.8289 43.4453 8.89976 38.9062 7.91089C37.4148 7.58667 36.7502 7.55424 33.6377 7.55424C29.6174 7.55424 28.2232 7.76499 25.1107 8.85112C23.2465 9.48335 20.1178 11.0396 18.9344 11.915C17.7834 12.758 17.6699 13.8441 18.6588 14.3628C19.3072 14.6871 19.6801 14.5898 21.0256 13.7144C22.6467 12.6769 24.3002 11.8826 26.1482 11.2665C28.6933 10.4236 29.9902 10.1966 32.9082 10.0994C36.0045 10.0021 38.3388 10.3101 41.0136 11.1855C43.5101 11.996 46.6388 13.682 48.4545 15.2058L49.0056 15.6597L45.7797 16.7783C44.0127 17.3781 42.2943 18.0427 41.9701 18.2535C40.5922 19.1126 39.7978 20.7013 39.814 22.5332C39.8302 24.1705 40.3004 25.0458 41.9539 26.5859L43.348 27.8828L43.0238 28.2394C42.8293 28.4501 41.7918 29.6335 40.6894 30.8818C39.6033 32.13 38.6469 33.2162 38.582 33.281C38.5172 33.3458 35.1291 31.3195 31.0277 28.7582C26.9426 26.1968 23.1816 23.9111 22.6953 23.6841C21.9172 23.3113 21.6092 23.2626 20.1015 23.2626C18.5939 23.2626 18.2859 23.3113 17.4754 23.7003C16.0812 24.3488 15.3193 25.1755 12.6283 28.8716C11.2828 30.7521 10.148 32.2435 10.0994 32.1949C9.9697 32.0652 10.3588 29.3742 10.7154 28.0125C11.6394 24.3488 13.4875 20.831 15.9515 18.0265C16.4541 17.4591 16.908 16.8269 16.9566 16.6162C17.0701 16.1785 16.6648 15.3193 16.292 15.1734C15.5463 14.8978 15.1572 15.0761 14.0549 16.2433C11.2504 19.1937 8.91599 23.83 7.91091 28.4339C7.58669 29.8605 7.55427 30.5414 7.55427 33.7187C7.55427 37.1392 7.58669 37.4796 8.00818 39.3115C10.5047 49.9945 18.448 57.5974 29.2283 59.6076C31.5303 60.0291 36.1666 59.9966 38.5496 59.5265C47.7088 57.7109 54.9551 51.6156 58.2783 42.9589C58.5701 42.197 58.9429 41.046 59.0888 40.3976C59.2996 39.5709 59.4455 39.2304 59.6238 39.2304C60.0939 39.2304 61.2287 38.582 61.8285 37.966C62.7849 37.0257 63.0605 36.2962 63.79 32.746C64.633 28.6771 64.7627 28.823 64.7465 33.7187C64.7465 38.0632 64.2601 40.7542 62.8174 44.6935L62.2176 46.2822L54.2904 54.2417C47.5953 60.9369 46.2336 62.2337 45.5851 62.4769C40.0572 64.6005 35.0967 65.2652 29.8767 64.6005C17.3457 62.9794 6.97068 54.0148 3.64744 41.9052C2.26951 36.8474 2.20466 31.1412 3.48533 26.0509C5.6738 17.3781 11.7529 9.8562 19.8746 5.78725C22.6791 4.3769 25.8726 3.37183 29.1797 2.85307C30.3144 2.67475 31.6599 2.62612 34.2861 2.65855C37.3662 2.70718 38.1119 2.77202 39.8465 3.14487ZM62.9957 14.5249C63.6603 14.8492 64.1791 15.53 64.2926 16.2433C64.406 16.9242 60.7099 35.0642 60.3533 35.6802C60.0129 36.2476 59.024 36.7988 58.3756 36.7988C57.6136 36.7988 57.0625 36.4583 55.3279 34.9183C53.5933 33.3783 53.2367 33.1675 52.572 33.4107C52.2803 33.508 50.3349 35.5667 47.109 39.2304C41.5486 45.5365 41.4189 45.6337 39.6357 45.6175C39.1008 45.6175 38.4847 45.5203 38.2578 45.3906C38.0308 45.2771 34.3185 42.9751 29.9902 40.2841C25.6619 37.5931 21.9496 35.356 21.7388 35.2912C21.5281 35.2425 21.2039 35.2587 20.9931 35.3398C20.7662 35.4208 19.2261 37.3986 17.1836 40.2355C15.2869 42.8455 13.601 45.115 13.4551 45.2771C13.1795 45.5689 13.147 45.5203 12.4338 44.0613C11.526 42.197 10.7965 40.041 10.456 38.1767C10.1967 36.7988 10.1967 36.7339 10.4885 36.3287C10.6668 36.1017 12.2392 33.9132 14.0062 31.4978C15.757 29.0662 17.4592 26.8777 17.7672 26.6183C18.7398 25.8078 20.3609 25.5322 21.447 26.0023C21.7388 26.1158 25.4998 28.4177 29.8281 31.125C34.1564 33.816 37.9174 36.1341 38.2092 36.2476C38.5658 36.4097 38.8576 36.4259 39.1332 36.3125C39.6357 36.1341 46.3308 28.596 46.4605 28.0935C46.6388 27.3802 46.3633 26.9749 44.5152 25.3214C42.959 23.9435 42.6185 23.5544 42.4726 22.9871C42.3105 22.4521 42.3267 22.1927 42.5537 21.6416C42.6834 21.2525 42.959 20.8148 43.1373 20.6527C43.5426 20.2798 61.1638 14.298 61.8933 14.2818C62.2013 14.2656 62.6877 14.3791 62.9957 14.5249ZM54.5822 37.8039C55.0523 38.2091 55.7332 38.6792 56.0736 38.8576C56.8031 39.1818 56.8031 39.0359 56.1385 41.0947C55.0523 44.5638 53.2043 47.498 50.3512 50.3511C46.7361 53.95 42.8779 56.0087 37.8525 56.9976C35.6478 57.4353 31.6113 57.4029 29.2121 56.9328C24.4623 55.9763 20.3933 53.7878 16.9242 50.3187C15.9191 49.3298 15.0599 48.3734 15.0113 48.1789C14.8492 47.7087 21.6416 38.355 22.0144 38.5009C22.1603 38.5496 25.4187 40.5597 29.2607 42.9427C33.0865 45.3419 36.5232 47.4332 36.8799 47.6115C38.8738 48.6328 41.5486 48.4058 43.4615 47.0765C43.8019 46.8333 46.1039 44.3531 48.5842 41.5648C52.9773 36.5718 53.0746 36.4908 53.3988 36.7664C53.5933 36.9123 54.1121 37.3824 54.5822 37.8039ZM69.2693 47.0603C70.242 47.4656 71.2308 48.5679 71.5875 49.6378C71.9117 50.6105 71.8306 52.0208 71.4092 52.8638C71.0363 53.6095 53.7554 70.939 52.9287 71.3767C52.4261 71.6523 52.0047 71.7333 50.9834 71.7333C49.8648 71.7333 49.5892 71.6685 48.957 71.2957C47.4656 70.4203 46.6388 69.0261 46.6388 67.4375C46.6388 65.6218 46.5578 65.7029 55.9763 56.2843C60.7262 51.5345 64.9086 47.4656 65.2652 47.2386C66.5297 46.4929 67.7941 46.4281 69.2693 47.0603Z" fill="white"/>
</g>
</g>
<defs>
<clipPath id="clip0_18_1743">
<rect width="83" height="83" fill="white"/>
</clipPath>
</defs>
</svg>
