<svg width="207" height="205" viewBox="0 0 207 205" fill="none" xmlns="http://www.w3.org/2000/svg">
<path d="M20.1127 166.973C12.8278 154.972 7.97814 141.654 5.84046 127.778C3.70279 113.903 4.31899 99.7423 7.6539 86.1051C10.9888 72.4678 16.9771 59.621 25.2769 48.2981C33.5767 36.9752 44.0254 27.3979 56.0265 20.1131C68.0276 12.8283 81.3461 7.97855 95.2214 5.84088C109.097 3.7032 123.257 4.31941 136.895 7.65432C150.532 10.9892 163.379 16.9775 174.701 25.2773C186.024 33.5771 195.602 44.0259 202.887 56.027" stroke="#00FFFF" stroke-width="8" stroke-linecap="round" stroke-linejoin="round"/>
<path d="M114.111 200.273C98.6904 200.727 83.4179 197.156 69.7974 189.912C56.1769 182.668 44.6782 172.001 36.4339 158.962C28.1895 145.923 23.4839 130.961 22.7803 115.55C22.0768 100.139 25.3998 84.8104 32.4218 71.0742C39.4439 57.3381 49.9229 45.6679 62.8267 37.2132C75.7306 28.7585 90.6142 23.8108 106.012 22.8575C121.409 21.9042 136.789 24.9782 150.638 31.7766C164.486 38.575 176.324 48.8634 184.987 61.6284" stroke="#00FFFF" stroke-width="8" stroke-linecap="round" stroke-linejoin="round"/>
<path d="M171.792 149.271C165.162 159.854 155.863 168.506 144.829 174.357C133.796 180.207 121.416 183.051 108.936 182.6C96.4548 182.15 84.3124 178.423 73.7288 171.793C63.1453 165.162 54.4934 155.863 48.6428 144.829C42.7923 133.796 39.9492 121.416 40.3993 108.936C40.8494 96.455 44.5769 84.3126 51.207 73.729C57.8372 63.1455 67.1365 54.4936 78.1702 48.643C89.2039 42.7925 101.583 39.9494 114.064 40.3995" stroke="#00FFFF" stroke-width="8" stroke-linecap="round" stroke-linejoin="round"/>
<path d="M84.5155 156.827C76.1564 151.851 69.3361 144.66 64.8086 136.05C60.2812 127.439 58.2229 117.745 58.8613 108.038" stroke="#00FFFF" stroke-width="8" stroke-linecap="round" stroke-linejoin="round"/>
</svg>