<svg width="207" height="221" viewBox="0 0 207 221" fill="none" xmlns="http://www.w3.org/2000/svg">
<path d="M93.2829 216.842C75.6535 213.794 59.0711 206.369 45.0553 195.25C31.0395 184.13 20.0385 169.67 13.0605 153.196C6.0825 136.722 3.35057 118.76 5.1151 100.956C6.87962 83.1525 13.0842 66.0762 23.1601 51.2923C33.2361 36.5083 46.8613 24.4896 62.7871 16.3374C78.713 8.18516 96.4301 4.16022 114.315 4.63138C132.2 5.10253 149.68 10.0547 165.155 19.0341C180.629 28.0136 193.603 40.733 202.887 56.027" stroke="#F0A7AB" stroke-width="8" stroke-linecap="round" stroke-linejoin="round"/>
<path d="M114.111 200.273C98.6904 200.727 83.4179 197.156 69.7974 189.912C56.1769 182.668 44.6782 172.001 36.4339 158.962C28.1895 145.923 23.4839 130.961 22.7803 115.55C22.0768 100.139 25.3998 84.8104 32.4218 71.0742C39.4439 57.3381 49.9229 45.6679 62.8267 37.2132C75.7306 28.7585 90.6142 23.8108 106.012 22.8575C121.409 21.9042 136.789 24.9782 150.638 31.7766C164.486 38.575 176.324 48.8634 184.987 61.6284" stroke="#F0A7AB" stroke-width="8" stroke-linecap="round" stroke-linejoin="round"/>
<path d="M114.065 182.6C104.512 182.945 94.9879 181.361 86.0608 177.943C77.1337 174.525 68.9869 169.344 62.1069 162.707C55.2268 156.071 49.7547 148.116 46.0171 139.318C42.2795 130.52 40.3531 121.059 40.3531 111.5C40.353 101.941 42.2792 92.4804 46.0167 83.6824C49.7541 74.8843 55.2262 66.9296 62.1062 60.2932C68.9861 53.6569 77.1328 48.475 86.0599 45.057C94.9869 41.639 104.511 40.055 114.064 40.3995" stroke="#F0A7AB" stroke-width="8" stroke-linecap="round" stroke-linejoin="round"/>
<path d="M84.5156 156.827C76.1565 151.851 69.3362 144.66 64.8087 136.05C60.2813 127.44 58.223 117.745 58.8614 108.038" stroke="#F0A7AB" stroke-width="8" stroke-linecap="round" stroke-linejoin="round"/>
</svg>
