<svg width="166" height="56" viewBox="0 0 166 56" fill="none" xmlns="http://www.w3.org/2000/svg">
<path d="M32.9199 27.4861L32.3733 24.1211L30.1301 10.3069L29.5837 6.94193H36.753C38.7623 6.94193 40.5667 7.38469 42.1664 8.27022C43.766 9.13606 45.0047 10.3463 45.8826 11.9009C46.7799 13.4555 47.2286 15.2068 47.2286 17.155C47.2286 19.1228 46.7799 20.8939 45.8826 22.4681C45.0047 24.0424 43.766 25.2723 42.1664 26.1578C40.5863 27.0433 38.7818 27.4861 36.753 27.4861H32.9199ZM36.753 24.1211C38.1185 24.1211 39.3182 23.8358 40.3522 23.2651C41.3861 22.6944 42.1859 21.8876 42.7516 20.8447C43.3173 19.782 43.6002 18.5521 43.6002 17.155C43.6002 15.7972 43.3173 14.6066 42.7516 13.5834C42.1859 12.5404 41.3861 11.7336 40.3522 11.1629C39.3182 10.5923 38.1185 10.3069 36.753 10.3069H30.1301L32.3733 24.1211H36.753Z" fill="white"/>
<path d="M12.2812 27.4861C10.7206 27.4861 9.30608 27.2008 8.03808 26.453C6.78959 25.7052 5.80446 24.6524 5.08267 23.2946C4.36089 21.9368 4 20.3921 4 18.6604C4 16.4958 4.48769 14.4886 5.46307 12.6388C6.43845 10.789 7.78448 9.31317 9.50115 8.21119C11.2178 7.08952 13.1491 6.52869 15.2949 6.52869C17.1872 6.52869 18.9429 7.07968 20.562 8.18167L19.0404 11.1039C17.8114 10.2577 16.4751 9.83465 15.0316 9.83465C13.6465 9.83465 12.3785 10.2184 11.2276 10.9858C10.0961 11.7533 9.19879 12.7864 8.53553 14.0852C7.89177 15.3839 7.5699 16.8106 7.5699 18.3652C7.5699 20.1559 8.05759 21.5925 9.03297 22.6748C10.0084 23.7374 11.2861 24.2687 12.8662 24.2687C13.549 24.2687 14.2513 24.1703 14.973 23.9735C15.7143 23.7767 16.4166 23.5012 17.0799 23.147L17.8114 26.1283C17.0116 26.6006 16.124 26.9646 15.1486 27.2205C13.9769 27.5278 14.9148 27.4861 12.2812 27.4861Z" fill="white"/>
<path d="M17.4017 27.4861H13.7733L24.7171 6.94193H28.7845L32.1203 27.4861H28.6089L27.8773 22.4681H19.9768L17.4017 27.4861ZM26.1509 10.425L21.4106 19.664H27.497L26.1509 10.425Z" fill="white"/>
<path d="M116.494 8.866C116.494 8.6578 116.669 8.48903 116.886 8.48903H122.617C122.833 8.48903 123.009 8.6578 123.009 8.866C123.009 9.07419 122.833 9.24296 122.617 9.24296H116.886C116.669 9.24296 116.494 9.07419 116.494 8.866Z" fill="white"/>
<path d="M116.651 10.4493C116.651 10.2411 116.826 10.0723 117.043 10.0723H123.873C124.089 10.0723 124.265 10.2411 124.265 10.4493C124.265 10.6574 124.089 10.8262 123.873 10.8262H117.043C116.826 10.8262 116.651 10.6574 116.651 10.4493Z" fill="white"/>
<path d="M123.637 9.24296C123.854 9.24296 124.03 9.07419 124.03 8.866C124.03 8.65781 123.854 8.48903 123.637 8.48903C123.42 8.48903 123.245 8.65781 123.245 8.866C123.245 9.07419 123.42 9.24296 123.637 9.24296Z" fill="white"/>
<path fill-rule="evenodd" clip-rule="evenodd" d="M115.563 7.27923C115.883 6.85232 116.413 6.52881 117.2 6.52881H123.716C124.24 6.52881 124.76 6.64449 125.153 6.97828C125.555 7.31968 125.757 7.83231 125.757 8.48903V11.4294C125.757 11.951 125.481 12.3661 125.04 12.6339C124.614 12.8923 124.042 13.0126 123.402 13.0126H122.146V14.5205C122.146 14.673 122.05 14.8104 121.903 14.8688C121.757 14.9271 121.588 14.8949 121.476 14.787L119.471 12.8618H117.2C116.874 12.8618 116.385 12.7839 115.964 12.5343C115.522 12.2722 115.159 11.8197 115.159 11.1278V8.48903C115.159 8.16483 115.257 7.68692 115.563 7.27923ZM116.2 7.71976C116.011 7.97176 115.944 8.28548 115.944 8.48903V11.1278C115.944 11.5215 116.131 11.7475 116.376 11.8927C116.642 12.0502 116.977 12.1079 117.2 12.1079H119.634C119.738 12.1079 119.838 12.1476 119.911 12.2183L121.361 13.6104V12.6357C121.361 12.4275 121.536 12.2587 121.753 12.2587H123.402C123.954 12.2587 124.363 12.1529 124.621 11.9966C124.862 11.8497 124.972 11.6617 124.972 11.4294V8.48903C124.972 7.98088 124.82 7.70189 124.633 7.54287C124.437 7.37626 124.133 7.28274 123.716 7.28274H117.2C116.669 7.28274 116.374 7.48698 116.2 7.71976Z" fill="white"/>
<path d="M127.013 9.9969C126.796 9.9969 126.62 10.1657 126.62 10.3739C126.62 10.5821 126.796 10.7508 127.013 10.7508C128.833 10.7508 130.604 11.3243 132.052 12.3834C133.501 13.4424 134.548 14.9286 135.033 16.614C135.518 18.2994 135.414 20.0911 134.737 21.7143C134.06 23.3375 132.847 24.7026 131.285 25.6004C129.723 26.4982 127.897 26.879 126.087 26.6846C124.278 26.4902 122.585 25.7312 121.268 24.524C119.951 23.3169 119.082 21.7281 118.796 20.0013C118.509 18.2746 118.82 16.5052 119.68 14.9643C119.783 14.7809 119.711 14.5524 119.52 14.4539C119.329 14.3555 119.091 14.4244 118.989 14.6079C118.047 16.2941 117.706 18.2305 118.02 20.1201C118.334 22.0098 119.285 23.7484 120.726 25.0695C122.167 26.3906 124.02 27.2211 126 27.4339C127.98 27.6467 129.978 27.2298 131.688 26.2474C133.398 25.2649 134.725 23.7709 135.466 21.9946C136.206 20.2183 136.32 18.2576 135.79 16.4132C135.259 14.5688 134.113 12.9424 132.528 11.7835C130.942 10.6245 129.005 9.9969 127.013 9.9969Z" fill="white"/>
<path fill-rule="evenodd" clip-rule="evenodd" d="M125.757 18.8179C125.757 19.4425 125.229 19.9488 124.579 19.9488C123.929 19.9488 123.402 19.4425 123.402 18.8179C123.402 18.1933 123.929 17.687 124.579 17.687C125.229 17.687 125.757 18.1933 125.757 18.8179ZM124.972 18.8179C124.972 19.0261 124.796 19.1949 124.579 19.1949C124.362 19.1949 124.187 19.0261 124.187 18.8179C124.187 18.6097 124.362 18.4409 124.579 18.4409C124.796 18.4409 124.972 18.6097 124.972 18.8179Z" fill="white"/>
<path fill-rule="evenodd" clip-rule="evenodd" d="M130.624 18.8179C130.624 19.4425 130.096 19.9488 129.446 19.9488C128.796 19.9488 128.269 19.4425 128.269 18.8179C128.269 18.1933 128.796 17.687 129.446 17.687C130.096 17.687 130.624 18.1933 130.624 18.8179ZM129.839 18.8179C129.839 19.0261 129.663 19.1949 129.446 19.1949C129.229 19.1949 129.054 19.0261 129.054 18.8179C129.054 18.6097 129.229 18.4409 129.446 18.4409C129.663 18.4409 129.839 18.6097 129.839 18.8179Z" fill="white"/>
<path fill-rule="evenodd" clip-rule="evenodd" d="M132.508 16.3299V16.9977C132.587 17.0167 132.666 17.0399 132.743 17.0672C132.772 17.0774 132.801 17.0882 132.829 17.0995C133.105 17.2094 133.356 17.3704 133.568 17.5735C133.779 17.7765 133.947 18.0175 134.061 18.2828C134.176 18.548 134.235 18.8323 134.235 19.1195C134.235 19.4066 134.176 19.6909 134.061 19.9562C133.947 20.2214 133.779 20.4625 133.568 20.6655C133.356 20.8685 133.105 21.0296 132.829 21.1394C132.801 21.1508 132.772 21.1616 132.743 21.1718C132.666 21.199 132.587 21.2222 132.508 21.2412V21.909C132.508 22.3254 132.156 22.663 131.723 22.663H122.146C121.712 22.663 121.361 22.3254 121.361 21.909V21.2412C121.281 21.2222 121.202 21.199 121.125 21.1718C121.096 21.1616 121.067 21.1508 121.039 21.1394C120.763 21.0296 120.512 20.8685 120.3 20.6655C120.089 20.4625 119.921 20.2214 119.807 19.9562C119.693 19.6909 119.634 19.4066 119.634 19.1195C119.634 18.8323 119.693 18.548 119.807 18.2828C119.921 18.0175 120.089 17.7765 120.3 17.5735C120.512 17.3704 120.763 17.2094 121.039 17.0995C121.067 17.0882 121.096 17.0774 121.125 17.0672C121.202 17.0399 121.281 17.0167 121.361 16.9977V16.3299C121.361 15.9135 121.712 15.576 122.146 15.576H126.62V14.762C126.119 14.6037 125.757 14.1503 125.757 13.6158C125.757 12.9496 126.319 12.4095 127.013 12.4095C127.706 12.4095 128.269 12.9496 128.269 13.6158C128.269 14.1503 127.907 14.6037 127.405 14.762V15.576H131.723C132.156 15.576 132.508 15.9135 132.508 16.3299ZM133.013 18.1066C132.931 18.0283 132.841 17.9595 132.743 17.9015V20.3375C132.841 20.2795 132.931 20.2107 133.013 20.1324C133.151 19.9994 133.261 19.8415 133.336 19.6677C133.411 19.4939 133.45 19.3076 133.45 19.1195C133.45 18.9314 133.411 18.7451 133.336 18.5713C133.261 18.3975 133.151 18.2396 133.013 18.1066ZM121.125 20.3375C121.028 20.2795 120.937 20.2107 120.855 20.1324C120.717 19.9994 120.607 19.8415 120.532 19.6677C120.457 19.4939 120.419 19.3076 120.419 19.1195C120.419 18.9314 120.457 18.7451 120.532 18.5713C120.607 18.3975 120.717 18.2396 120.855 18.1066C120.937 18.0283 121.028 17.9595 121.125 17.9015L121.125 20.3375ZM127.013 14.0681C127.273 14.0681 127.484 13.8656 127.484 13.6158C127.484 13.3659 127.273 13.1634 127.013 13.1634C126.752 13.1634 126.542 13.3659 126.542 13.6158C126.542 13.8656 126.752 14.0681 127.013 14.0681ZM131.723 16.3299H122.146V21.909H131.723V16.3299Z" fill="white"/>
<path d="M54.0606 30.712H52.4366V4.003H54.0606V30.712Z" fill="#AD91FE"/>
<path d="M69.6093 27.29C67.7727 27.29 66.1777 26.884 64.8243 26.072C63.4903 25.2407 62.456 24.071 61.7213 22.563C61.006 21.055 60.6483 19.2957 60.6483 17.285V6.816H65.0273V17.227C65.0273 19.083 65.4237 20.5233 66.2163 21.548C67.0283 22.5727 68.169 23.085 69.6383 23.085C71.1463 23.085 72.2773 22.5823 73.0313 21.577C73.8047 20.5717 74.1913 19.1217 74.1913 17.227V6.816H78.5413V17.256C78.5413 19.2473 78.174 21.0067 77.4393 22.534C76.7047 24.042 75.6607 25.2117 74.3073 26.043C72.9733 26.8743 71.4073 27.29 69.6093 27.29ZM81.5617 27H77.0667L84.4617 6.816H89.7397L97.1347 27H92.5527L91.0157 22.592H83.0407L81.5617 27ZM86.9557 10.789L84.1717 19.083H89.8267L86.9557 10.789ZM104.753 27.29C102.936 27.29 101.273 26.855 99.7653 25.985C98.2766 25.115 97.0973 23.897 96.2273 22.331C95.3573 20.7457 94.9223 18.9283 94.9223 16.879C94.9223 14.9843 95.3573 13.2443 96.2273 11.659C97.1166 10.0737 98.3249 8.82667 99.8523 7.918C101.38 6.99 103.062 6.526 104.898 6.526C105.962 6.526 106.938 6.65167 107.827 6.903C108.736 7.15433 109.625 7.541 110.495 8.063L109.364 11.891C108.069 11.0983 106.667 10.702 105.159 10.702C104.077 10.702 103.091 10.9533 102.201 11.456C101.331 11.9587 100.645 12.674 100.142 13.602C99.6396 14.53 99.3883 15.603 99.3883 16.821C99.3883 18.039 99.6396 19.1313 100.142 20.098C100.645 21.0453 101.322 21.78 102.172 22.302C103.042 22.824 104.009 23.085 105.072 23.085C105.962 23.085 106.754 22.9787 107.45 22.766C108.166 22.534 108.871 22.2247 109.567 21.838L110.698 25.637C109.77 26.1977 108.842 26.6133 107.914 26.884C107.006 27.1547 105.952 27.29 104.753 27.29Z" fill="white"/>
<path d="M155.254 14L153.121 12.5781L140.653 21L151.153 28L161.653 21L157.278 18.1016L152.028 21.6563L154.324 23.1328L151.153 25.0469L145.192 21L155.254 14Z" fill="white"/>
<path d="M145.028 25.1016L142.84 23.625L140.653 25.1016V28L145.028 25.1016Z" fill="white"/>
<path d="M161.653 14L151.153 7L140.653 14L145.028 16.8984L150.278 13.3438L147.981 11.8672L151.153 9.95313L157.114 14L147.051 21L149.184 22.4219L161.653 14Z" fill="white"/>
<path d="M161.653 9.89844V7L157.278 9.89844L159.465 11.375L161.653 9.89844Z" fill="white"/>
<g style="mix-blend-mode:overlay" opacity="0.5" filter="url(#filter0_f_2141_2918)">
<mask id="mask0_2141_2918" style="mask-type:alpha" maskUnits="userSpaceOnUse" x="4" y="26" width="158" height="30">
<rect x="4" y="26" width="157.653" height="30" fill="url(#paint0_linear_2141_2918)"/>
</mask>
<g mask="url(#mask0_2141_2918)">
<path d="M32.9199 28.5139L32.3733 31.8789L30.1301 45.6931L29.5837 49.0581H36.753C38.7623 49.0581 40.5667 48.6153 42.1664 47.7298C43.766 46.8639 45.0047 45.6537 45.8826 44.0991C46.7799 42.5445 47.2286 40.7932 47.2286 38.845C47.2286 36.8772 46.7799 35.1061 45.8826 33.5319C45.0047 31.9576 43.766 30.7277 42.1664 29.8422C40.5863 28.9567 38.7818 28.5139 36.753 28.5139H32.9199ZM36.753 31.8789C38.1185 31.8789 39.3182 32.1642 40.3522 32.7349C41.3861 33.3056 42.1859 34.1124 42.7516 35.1553C43.3173 36.218 43.6002 37.4479 43.6002 38.845C43.6002 40.2028 43.3173 41.3934 42.7516 42.4166C42.1859 43.4596 41.3861 44.2664 40.3522 44.8371C39.3182 45.4077 38.1185 45.6931 36.753 45.6931H30.1301L32.3733 31.8789H36.753Z" fill="white"/>
<path d="M12.2812 28.5139C10.7206 28.5139 9.30608 28.7992 8.03808 29.547C6.78959 30.2948 5.80446 31.3476 5.08267 32.7054C4.36089 34.0632 4 35.6079 4 37.3396C4 39.5042 4.48769 41.5114 5.46307 43.3612C6.43845 45.211 7.78448 46.6868 9.50115 47.7888C11.2178 48.9105 13.1491 49.4713 15.2949 49.4713C17.1872 49.4713 18.9429 48.9203 20.562 47.8183L19.0404 44.8961C17.8114 45.7423 16.4751 46.1654 15.0316 46.1654C13.6465 46.1654 12.3785 45.7816 11.2276 45.0142C10.0961 44.2467 9.19879 43.2136 8.53553 41.9148C7.89177 40.6161 7.5699 39.1894 7.5699 37.6348C7.5699 35.8441 8.05759 34.4075 9.03297 33.3252C10.0084 32.2626 11.2861 31.7313 12.8662 31.7313C13.549 31.7313 14.2513 31.8297 14.973 32.0265C15.7143 32.2233 16.4166 32.4988 17.0799 32.853L17.8114 29.8717C17.0116 29.3994 16.124 29.0354 15.1486 28.7795C13.9769 28.4722 14.9148 28.5139 12.2812 28.5139Z" fill="white"/>
<path d="M17.4017 28.5139H13.7733L24.7171 49.0581H28.7845L32.1203 28.5139H28.6089L27.8773 33.5319H19.9768L17.4017 28.5139ZM26.1509 45.575L21.4106 36.336H27.497L26.1509 45.575Z" fill="white"/>
<path d="M116.494 47.134C116.494 47.3422 116.669 47.511 116.886 47.511H122.617C122.833 47.511 123.009 47.3422 123.009 47.134C123.009 46.9258 122.833 46.757 122.617 46.757H116.886C116.669 46.757 116.494 46.9258 116.494 47.134Z" fill="white"/>
<path d="M116.651 45.5507C116.651 45.7589 116.826 45.9277 117.043 45.9277H123.873C124.089 45.9277 124.265 45.7589 124.265 45.5507C124.265 45.3426 124.089 45.1738 123.873 45.1738H117.043C116.826 45.1738 116.651 45.3426 116.651 45.5507Z" fill="white"/>
<path d="M123.637 46.757C123.854 46.757 124.03 46.9258 124.03 47.134C124.03 47.3422 123.854 47.511 123.637 47.511C123.42 47.511 123.245 47.3422 123.245 47.134C123.245 46.9258 123.42 46.757 123.637 46.757Z" fill="white"/>
<path fill-rule="evenodd" clip-rule="evenodd" d="M115.563 48.7208C115.883 49.1477 116.413 49.4712 117.2 49.4712H123.716C124.24 49.4712 124.76 49.3555 125.153 49.0217C125.555 48.6803 125.757 48.1677 125.757 47.511V44.5706C125.757 44.049 125.481 43.6339 125.04 43.3661C124.614 43.1077 124.042 42.9874 123.402 42.9874H122.146V41.4795C122.146 41.327 122.05 41.1896 121.903 41.1312C121.757 41.0729 121.588 41.1051 121.476 41.213L119.471 43.1382H117.2C116.874 43.1382 116.385 43.2161 115.964 43.4657C115.522 43.7278 115.159 44.1803 115.159 44.8722V47.511C115.159 47.8352 115.257 48.3131 115.563 48.7208ZM116.2 48.2802C116.011 48.0282 115.944 47.7145 115.944 47.511V44.8722C115.944 44.4785 116.131 44.2525 116.376 44.1073C116.642 43.9498 116.977 43.8921 117.2 43.8921H119.634C119.738 43.8921 119.838 43.8524 119.911 43.7817L121.361 42.3896V43.3643C121.361 43.5725 121.536 43.7413 121.753 43.7413H123.402C123.954 43.7413 124.363 43.8471 124.621 44.0034C124.862 44.1503 124.972 44.3383 124.972 44.5706V47.511C124.972 48.0191 124.82 48.2981 124.633 48.4571C124.437 48.6237 124.133 48.7173 123.716 48.7173H117.2C116.669 48.7173 116.374 48.513 116.2 48.2802Z" fill="white"/>
<path d="M127.013 46.0031C126.796 46.0031 126.62 45.8343 126.62 45.6261C126.62 45.4179 126.796 45.2492 127.013 45.2492C128.833 45.2492 130.604 44.6757 132.052 43.6166C133.501 42.5576 134.548 41.0714 135.033 39.386C135.518 37.7006 135.414 35.9089 134.737 34.2857C134.06 32.6625 132.847 31.2974 131.285 30.3996C129.723 29.5018 127.897 29.121 126.087 29.3154C124.278 29.5098 122.585 30.2688 121.268 31.476C119.951 32.6831 119.082 34.2719 118.796 35.9987C118.509 37.7254 118.82 39.4948 119.68 41.0357C119.783 41.2191 119.711 41.4476 119.52 41.5461C119.329 41.6445 119.091 41.5756 118.989 41.3921C118.047 39.7059 117.706 37.7695 118.02 35.8799C118.334 33.9902 119.285 32.2516 120.726 30.9305C122.167 29.6094 124.02 28.7789 126 28.5661C127.98 28.3533 129.978 28.7702 131.688 29.7526C133.398 30.7351 134.725 32.2291 135.466 34.0054C136.206 35.7817 136.32 37.7424 135.79 39.5868C135.259 41.4312 134.113 43.0576 132.528 44.2165C130.942 45.3755 129.005 46.0031 127.013 46.0031Z" fill="white"/>
<path fill-rule="evenodd" clip-rule="evenodd" d="M125.757 37.1821C125.757 36.5575 125.229 36.0512 124.579 36.0512C123.929 36.0512 123.402 36.5575 123.402 37.1821C123.402 37.8067 123.929 38.313 124.579 38.313C125.229 38.313 125.757 37.8067 125.757 37.1821ZM124.972 37.1821C124.972 36.9739 124.796 36.8051 124.579 36.8051C124.362 36.8051 124.187 36.9739 124.187 37.1821C124.187 37.3903 124.362 37.5591 124.579 37.5591C124.796 37.5591 124.972 37.3903 124.972 37.1821Z" fill="white"/>
<path fill-rule="evenodd" clip-rule="evenodd" d="M130.624 37.1821C130.624 36.5575 130.096 36.0512 129.446 36.0512C128.796 36.0512 128.269 36.5575 128.269 37.1821C128.269 37.8067 128.796 38.313 129.446 38.313C130.096 38.313 130.624 37.8067 130.624 37.1821ZM129.839 37.1821C129.839 36.9739 129.663 36.8051 129.446 36.8051C129.229 36.8051 129.054 36.9739 129.054 37.1821C129.054 37.3903 129.229 37.5591 129.446 37.5591C129.663 37.5591 129.839 37.3903 129.839 37.1821Z" fill="white"/>
<path fill-rule="evenodd" clip-rule="evenodd" d="M132.508 39.6701V39.0023C132.587 38.9833 132.666 38.9601 132.743 38.9328C132.772 38.9226 132.801 38.9118 132.829 38.9005C133.105 38.7906 133.356 38.6296 133.568 38.4265C133.779 38.2235 133.947 37.9825 134.061 37.7172C134.176 37.452 134.235 37.1677 134.235 36.8805C134.235 36.5934 134.176 36.3091 134.061 36.0438C133.947 35.7786 133.779 35.5375 133.568 35.3345C133.356 35.1315 133.105 34.9704 132.829 34.8606C132.801 34.8492 132.772 34.8384 132.743 34.8282C132.666 34.801 132.587 34.7778 132.508 34.7588V34.091C132.508 33.6746 132.156 33.337 131.723 33.337H122.146C121.712 33.337 121.361 33.6746 121.361 34.091V34.7588C121.281 34.7778 121.202 34.801 121.125 34.8282C121.096 34.8384 121.067 34.8492 121.039 34.8606C120.763 34.9704 120.512 35.1315 120.3 35.3345C120.089 35.5375 119.921 35.7786 119.807 36.0438C119.693 36.3091 119.634 36.5934 119.634 36.8805C119.634 37.1677 119.693 37.452 119.807 37.7172C119.921 37.9825 120.089 38.2235 120.3 38.4265C120.512 38.6296 120.763 38.7906 121.039 38.9005C121.067 38.9118 121.096 38.9226 121.125 38.9328C121.202 38.9601 121.281 38.9833 121.361 39.0023V39.6701C121.361 40.0865 121.712 40.424 122.146 40.424H126.62V41.238C126.119 41.3963 125.757 41.8497 125.757 42.3842C125.757 43.0504 126.319 43.5905 127.013 43.5905C127.706 43.5905 128.269 43.0504 128.269 42.3842C128.269 41.8497 127.907 41.3963 127.405 41.238V40.424H131.723C132.156 40.424 132.508 40.0865 132.508 39.6701ZM133.013 37.8934C132.931 37.9717 132.841 38.0405 132.743 38.0985V35.6625C132.841 35.7205 132.931 35.7893 133.013 35.8676C133.151 36.0006 133.261 36.1585 133.336 36.3323C133.411 36.5061 133.45 36.6924 133.45 36.8805C133.45 37.0686 133.411 37.2549 133.336 37.4287C133.261 37.6025 133.151 37.7604 133.013 37.8934ZM121.125 35.6625C121.028 35.7205 120.937 35.7893 120.855 35.8676C120.717 36.0006 120.607 36.1585 120.532 36.3323C120.457 36.5061 120.419 36.6924 120.419 36.8805C120.419 37.0686 120.457 37.2549 120.532 37.4287C120.607 37.6025 120.717 37.7604 120.855 37.8934C120.937 37.9717 121.028 38.0405 121.125 38.0985L121.125 35.6625ZM127.013 41.9319C127.273 41.9319 127.484 42.1344 127.484 42.3842C127.484 42.6341 127.273 42.8366 127.013 42.8366C126.752 42.8366 126.542 42.6341 126.542 42.3842C126.542 42.1344 126.752 41.9319 127.013 41.9319ZM131.723 39.6701H122.146V34.091H131.723V39.6701Z" fill="white"/>
<path d="M54.0606 25.288H52.4366V51.997H54.0606V25.288Z" fill="#AD91FE"/>
<path d="M69.6093 28.71C67.7727 28.71 66.1777 29.116 64.8243 29.928C63.4903 30.7593 62.456 31.929 61.7213 33.437C61.006 34.945 60.6483 36.7043 60.6483 38.715V49.184H65.0273V38.773C65.0273 36.917 65.4237 35.4767 66.2163 34.452C67.0283 33.4273 68.169 32.915 69.6383 32.915C71.1463 32.915 72.2773 33.4177 73.0313 34.423C73.8047 35.4283 74.1913 36.8783 74.1913 38.773V49.184H78.5413V38.744C78.5413 36.7527 78.174 34.9933 77.4393 33.466C76.7047 31.958 75.6607 30.7883 74.3073 29.957C72.9733 29.1257 71.4073 28.71 69.6093 28.71ZM81.5617 29H77.0667L84.4617 49.184H89.7397L97.1347 29H92.5527L91.0157 33.408H83.0407L81.5617 29ZM86.9557 45.211L84.1717 36.917H89.8267L86.9557 45.211ZM104.753 28.71C102.936 28.71 101.273 29.145 99.7653 30.015C98.2766 30.885 97.0973 32.103 96.2273 33.669C95.3573 35.2543 94.9223 37.0717 94.9223 39.121C94.9223 41.0157 95.3573 42.7557 96.2273 44.341C97.1166 45.9263 98.3249 47.1733 99.8523 48.082C101.38 49.01 103.062 49.474 104.898 49.474C105.962 49.474 106.938 49.3483 107.827 49.097C108.736 48.8457 109.625 48.459 110.495 47.937L109.364 44.109C108.069 44.9017 106.667 45.298 105.159 45.298C104.077 45.298 103.091 45.0467 102.201 44.544C101.331 44.0413 100.645 43.326 100.142 42.398C99.6396 41.47 99.3883 40.397 99.3883 39.179C99.3883 37.961 99.6396 36.8687 100.142 35.902C100.645 34.9547 101.322 34.22 102.172 33.698C103.042 33.176 104.009 32.915 105.072 32.915C105.962 32.915 106.754 33.0213 107.45 33.234C108.166 33.466 108.871 33.7753 109.567 34.162L110.698 30.363C109.77 29.8023 108.842 29.3867 107.914 29.116C107.006 28.8453 105.952 28.71 104.753 28.71Z" fill="white"/>
<path d="M155.254 42L153.121 43.4219L140.653 35L151.153 28L161.653 35L157.278 37.8984L152.028 34.3437L154.324 32.8672L151.153 30.9531L145.192 35L155.254 42Z" fill="white"/>
<path d="M145.028 30.8984L142.84 32.375L140.653 30.8984V28L145.028 30.8984Z" fill="white"/>
<path d="M161.653 42L151.153 49L140.653 42L145.028 39.1016L150.278 42.6562L147.981 44.1328L151.153 46.0469L157.114 42L147.051 35L149.184 33.5781L161.653 42Z" fill="white"/>
<path d="M161.653 46.1016V49L157.278 46.1016L159.465 44.625L161.653 46.1016Z" fill="white"/>
</g>
</g>
<defs>
<filter id="filter0_f_2141_2918" x="0" y="22" width="165.653" height="33.997" filterUnits="userSpaceOnUse" color-interpolation-filters="sRGB">
<feFlood flood-opacity="0" result="BackgroundImageFix"/>
<feBlend mode="normal" in="SourceGraphic" in2="BackgroundImageFix" result="shape"/>
<feGaussianBlur stdDeviation="2" result="effect1_foregroundBlur_2141_2918"/>
</filter>
<linearGradient id="paint0_linear_2141_2918" x1="82.8263" y1="26" x2="82.8263" y2="56" gradientUnits="userSpaceOnUse">
<stop stop-color="white"/>
<stop offset="1" stop-opacity="0"/>
</linearGradient>
</defs>
</svg>
