<svg width="158" height="31" viewBox="0 0 158 31" fill="none" xmlns="http://www.w3.org/2000/svg">
<path d="M28.9199 27.4861L28.3733 24.1211L26.1301 10.3069L25.5837 6.94193H32.753C34.7623 6.94193 36.5667 7.38469 38.1664 8.27022C39.766 9.13606 41.0047 10.3463 41.8826 11.9009C42.7799 13.4555 43.2286 15.2068 43.2286 17.155C43.2286 19.1228 42.7799 20.8939 41.8826 22.4681C41.0047 24.0424 39.766 25.2723 38.1664 26.1578C36.5863 27.0433 34.7818 27.4861 32.753 27.4861H28.9199ZM32.753 24.1211C34.1185 24.1211 35.3182 23.8358 36.3522 23.2651C37.3861 22.6944 38.1859 21.8876 38.7516 20.8447C39.3173 19.782 39.6002 18.5521 39.6002 17.155C39.6002 15.7972 39.3173 14.6066 38.7516 13.5834C38.1859 12.5404 37.3861 11.7336 36.3522 11.1629C35.3182 10.5923 34.1185 10.3069 32.753 10.3069H26.1301L28.3733 24.1211H32.753Z" fill="white"/>
<path d="M8.28122 27.4861C6.72061 27.4861 5.30608 27.2008 4.03808 26.453C2.78959 25.7052 1.80446 24.6524 1.08267 23.2946C0.360891 21.9368 0 20.3921 0 18.6604C0 16.4958 0.487691 14.4886 1.46307 12.6388C2.43845 10.789 3.78448 9.31317 5.50115 8.21119C7.21783 7.08952 9.14908 6.52869 11.2949 6.52869C13.1872 6.52869 14.9429 7.07968 16.562 8.18167L15.0404 11.1039C13.8114 10.2577 12.4751 9.83465 11.0316 9.83465C9.64653 9.83465 8.37853 10.2184 7.22758 10.9858C6.09614 11.7533 5.19879 12.7864 4.53553 14.0852C3.89177 15.3839 3.5699 16.8106 3.5699 18.3652C3.5699 20.1559 4.05759 21.5925 5.03297 22.6748C6.00835 23.7374 7.2861 24.2687 8.86622 24.2687C9.54899 24.2687 10.2513 24.1703 10.973 23.9735C11.7143 23.7767 12.4166 23.5012 13.0799 23.147L13.8114 26.1283C13.0116 26.6006 12.124 26.9646 11.1486 27.2205C9.97687 27.5278 10.9148 27.4861 8.28122 27.4861Z" fill="white"/>
<path d="M13.4017 27.4861H9.77333L20.7171 6.94193H24.7845L28.1203 27.4861H24.6089L23.8773 22.4681H15.9768L13.4017 27.4861ZM22.1509 10.425L17.4106 19.664H23.497L22.1509 10.425Z" fill="white"/>
<path d="M112.494 8.866C112.494 8.6578 112.669 8.48903 112.886 8.48903H118.617C118.833 8.48903 119.009 8.6578 119.009 8.866C119.009 9.07419 118.833 9.24296 118.617 9.24296H112.886C112.669 9.24296 112.494 9.07419 112.494 8.866Z" fill="white"/>
<path d="M112.651 10.4493C112.651 10.2411 112.826 10.0723 113.043 10.0723H119.873C120.089 10.0723 120.265 10.2411 120.265 10.4493C120.265 10.6574 120.089 10.8262 119.873 10.8262H113.043C112.826 10.8262 112.651 10.6574 112.651 10.4493Z" fill="white"/>
<path d="M119.637 9.24296C119.854 9.24296 120.03 9.07419 120.03 8.866C120.03 8.65781 119.854 8.48903 119.637 8.48903C119.42 8.48903 119.245 8.65781 119.245 8.866C119.245 9.07419 119.42 9.24296 119.637 9.24296Z" fill="white"/>
<path fill-rule="evenodd" clip-rule="evenodd" d="M111.563 7.27923C111.883 6.85232 112.413 6.52881 113.2 6.52881H119.716C120.24 6.52881 120.76 6.64449 121.153 6.97828C121.555 7.31968 121.757 7.83231 121.757 8.48903V11.4294C121.757 11.951 121.481 12.3661 121.04 12.6339C120.614 12.8923 120.042 13.0126 119.402 13.0126H118.146V14.5205C118.146 14.673 118.05 14.8104 117.903 14.8688C117.757 14.9271 117.588 14.8949 117.476 14.787L115.471 12.8618H113.2C112.874 12.8618 112.385 12.7839 111.964 12.5343C111.522 12.2722 111.159 11.8197 111.159 11.1278V8.48903C111.159 8.16483 111.257 7.68692 111.563 7.27923ZM112.2 7.71976C112.011 7.97176 111.944 8.28548 111.944 8.48903V11.1278C111.944 11.5215 112.131 11.7475 112.376 11.8927C112.642 12.0502 112.977 12.1079 113.2 12.1079H115.634C115.738 12.1079 115.838 12.1476 115.911 12.2183L117.361 13.6104V12.6357C117.361 12.4275 117.536 12.2587 117.753 12.2587H119.402C119.954 12.2587 120.363 12.1529 120.621 11.9966C120.862 11.8497 120.972 11.6617 120.972 11.4294V8.48903C120.972 7.98088 120.82 7.70189 120.633 7.54287C120.437 7.37626 120.133 7.28274 119.716 7.28274H113.2C112.669 7.28274 112.374 7.48698 112.2 7.71976Z" fill="white"/>
<path d="M123.013 9.9969C122.796 9.9969 122.62 10.1657 122.62 10.3739C122.62 10.5821 122.796 10.7508 123.013 10.7508C124.833 10.7508 126.604 11.3243 128.052 12.3834C129.501 13.4424 130.548 14.9286 131.033 16.614C131.518 18.2994 131.414 20.0911 130.737 21.7143C130.06 23.3375 128.847 24.7026 127.285 25.6004C125.723 26.4982 123.897 26.879 122.087 26.6846C120.278 26.4902 118.585 25.7312 117.268 24.524C115.951 23.3169 115.082 21.7281 114.796 20.0013C114.509 18.2746 114.82 16.5052 115.68 14.9643C115.783 14.7809 115.711 14.5524 115.52 14.4539C115.329 14.3555 115.091 14.4244 114.989 14.6079C114.047 16.2941 113.706 18.2305 114.02 20.1201C114.334 22.0098 115.285 23.7484 116.726 25.0695C118.167 26.3906 120.02 27.2211 122 27.4339C123.98 27.6467 125.978 27.2298 127.688 26.2474C129.398 25.2649 130.725 23.7709 131.466 21.9946C132.206 20.2183 132.32 18.2576 131.79 16.4132C131.259 14.5688 130.113 12.9424 128.528 11.7835C126.942 10.6245 125.005 9.9969 123.013 9.9969Z" fill="white"/>
<path fill-rule="evenodd" clip-rule="evenodd" d="M121.757 18.8179C121.757 19.4425 121.229 19.9488 120.579 19.9488C119.929 19.9488 119.402 19.4425 119.402 18.8179C119.402 18.1933 119.929 17.687 120.579 17.687C121.229 17.687 121.757 18.1933 121.757 18.8179ZM120.972 18.8179C120.972 19.0261 120.796 19.1949 120.579 19.1949C120.362 19.1949 120.187 19.0261 120.187 18.8179C120.187 18.6097 120.362 18.4409 120.579 18.4409C120.796 18.4409 120.972 18.6097 120.972 18.8179Z" fill="white"/>
<path fill-rule="evenodd" clip-rule="evenodd" d="M126.624 18.8179C126.624 19.4425 126.096 19.9488 125.446 19.9488C124.796 19.9488 124.269 19.4425 124.269 18.8179C124.269 18.1933 124.796 17.687 125.446 17.687C126.096 17.687 126.624 18.1933 126.624 18.8179ZM125.839 18.8179C125.839 19.0261 125.663 19.1949 125.446 19.1949C125.229 19.1949 125.054 19.0261 125.054 18.8179C125.054 18.6097 125.229 18.4409 125.446 18.4409C125.663 18.4409 125.839 18.6097 125.839 18.8179Z" fill="white"/>
<path fill-rule="evenodd" clip-rule="evenodd" d="M128.508 16.3299V16.9977C128.587 17.0167 128.666 17.0399 128.743 17.0672C128.772 17.0774 128.801 17.0882 128.829 17.0995C129.105 17.2094 129.356 17.3704 129.568 17.5735C129.779 17.7765 129.947 18.0175 130.061 18.2828C130.176 18.548 130.235 18.8323 130.235 19.1195C130.235 19.4066 130.176 19.6909 130.061 19.9562C129.947 20.2214 129.779 20.4625 129.568 20.6655C129.356 20.8685 129.105 21.0296 128.829 21.1394C128.801 21.1508 128.772 21.1616 128.743 21.1718C128.666 21.199 128.587 21.2222 128.508 21.2412V21.909C128.508 22.3254 128.156 22.663 127.723 22.663H118.146C117.712 22.663 117.361 22.3254 117.361 21.909V21.2412C117.281 21.2222 117.202 21.199 117.125 21.1718C117.096 21.1616 117.067 21.1508 117.039 21.1394C116.763 21.0296 116.512 20.8685 116.3 20.6655C116.089 20.4625 115.921 20.2214 115.807 19.9562C115.693 19.6909 115.634 19.4066 115.634 19.1195C115.634 18.8323 115.693 18.548 115.807 18.2828C115.921 18.0175 116.089 17.7765 116.3 17.5735C116.512 17.3704 116.763 17.2094 117.039 17.0995C117.067 17.0882 117.096 17.0774 117.125 17.0672C117.202 17.0399 117.281 17.0167 117.361 16.9977V16.3299C117.361 15.9135 117.712 15.576 118.146 15.576H122.62V14.762C122.119 14.6037 121.757 14.1503 121.757 13.6158C121.757 12.9496 122.319 12.4095 123.013 12.4095C123.706 12.4095 124.269 12.9496 124.269 13.6158C124.269 14.1503 123.907 14.6037 123.405 14.762V15.576H127.723C128.156 15.576 128.508 15.9135 128.508 16.3299ZM129.013 18.1066C128.931 18.0283 128.841 17.9595 128.743 17.9015V20.3375C128.841 20.2795 128.931 20.2107 129.013 20.1324C129.151 19.9994 129.261 19.8415 129.336 19.6677C129.411 19.4939 129.45 19.3076 129.45 19.1195C129.45 18.9314 129.411 18.7451 129.336 18.5713C129.261 18.3975 129.151 18.2396 129.013 18.1066ZM117.125 20.3375C117.028 20.2795 116.937 20.2107 116.855 20.1324C116.717 19.9994 116.607 19.8415 116.532 19.6677C116.457 19.4939 116.419 19.3076 116.419 19.1195C116.419 18.9314 116.457 18.7451 116.532 18.5713C116.607 18.3975 116.717 18.2396 116.855 18.1066C116.937 18.0283 117.028 17.9595 117.125 17.9015L117.125 20.3375ZM123.013 14.0681C123.273 14.0681 123.484 13.8656 123.484 13.6158C123.484 13.3659 123.273 13.1634 123.013 13.1634C122.752 13.1634 122.542 13.3659 122.542 13.6158C122.542 13.8656 122.752 14.0681 123.013 14.0681ZM127.723 16.3299H118.146V21.909H127.723V16.3299Z" fill="white"/>
<path d="M50.0603 30.712H48.4363V4.003H50.0603V30.712Z" fill="#AD91FE"/>
<path d="M65.6091 27.29C63.7724 27.29 62.1774 26.884 60.8241 26.072C59.4901 25.2407 58.4558 24.071 57.7211 22.563C57.0058 21.055 56.6481 19.2957 56.6481 17.285V6.816H61.0271V17.227C61.0271 19.083 61.4234 20.5233 62.2161 21.548C63.0281 22.5727 64.1688 23.085 65.6381 23.085C67.1461 23.085 68.2771 22.5823 69.0311 21.577C69.8044 20.5717 70.1911 19.1217 70.1911 17.227V6.816H74.5411V17.256C74.5411 19.2473 74.1738 21.0067 73.4391 22.534C72.7044 24.042 71.6604 25.2117 70.3071 26.043C68.9731 26.8743 67.4071 27.29 65.6091 27.29ZM77.5614 27H73.0664L80.4614 6.816H85.7394L93.1344 27H88.5524L87.0154 22.592H79.0404L77.5614 27ZM82.9554 10.789L80.1714 19.083H85.8264L82.9554 10.789ZM100.753 27.29C98.9357 27.29 97.273 26.855 95.765 25.985C94.2764 25.115 93.097 23.897 92.227 22.331C91.357 20.7457 90.922 18.9283 90.922 16.879C90.922 14.9843 91.357 13.2443 92.227 11.659C93.1164 10.0737 94.3247 8.82667 95.852 7.918C97.3794 6.99 99.0614 6.526 100.898 6.526C101.961 6.526 102.938 6.65167 103.827 6.903C104.736 7.15433 105.625 7.541 106.495 8.063L105.364 11.891C104.069 11.0983 102.667 10.702 101.159 10.702C100.076 10.702 99.0904 10.9533 98.201 11.456C97.331 11.9587 96.6447 12.674 96.142 13.602C95.6394 14.53 95.388 15.603 95.388 16.821C95.388 18.039 95.6394 19.1313 96.142 20.098C96.6447 21.0453 97.3214 21.78 98.172 22.302C99.042 22.824 100.009 23.085 101.072 23.085C101.961 23.085 102.754 22.9787 103.45 22.766C104.165 22.534 104.871 22.2247 105.567 21.838L106.698 25.637C105.77 26.1977 104.842 26.6133 103.914 26.884C103.005 27.1547 101.952 27.29 100.753 27.29Z" fill="white"/>
<path d="M151.254 14L149.121 12.5781L136.653 21L147.153 28L157.653 21L153.278 18.1016L148.028 21.6563L150.324 23.1328L147.153 25.0469L141.192 21L151.254 14Z" fill="#FDFEFF"/>
<path d="M141.028 25.1016L138.84 23.625L136.653 25.1016V28L141.028 25.1016Z" fill="#FDFEFF"/>
<path d="M157.653 14L147.153 7L136.653 14L141.028 16.8984L146.278 13.3438L143.981 11.8672L147.153 9.95313L153.114 14L143.051 21L145.184 22.4219L157.653 14Z" fill="#FDFEFF"/>
<path d="M157.653 9.89844V7L153.278 9.89844L155.465 11.375L157.653 9.89844Z" fill="#FDFEFF"/>
</svg>
