<svg width="162" height="63" viewBox="0 0 162 63" fill="none" xmlns="http://www.w3.org/2000/svg">
<path d="M4.38389 7.02518C4.38389 6.39939 4.89533 5.89208 5.52622 5.89208H22.2041C22.835 5.89208 23.3464 6.39939 23.3464 7.02518C23.3464 7.65096 22.835 8.15827 22.2041 8.15827H5.52622C4.89533 8.15827 4.38389 7.65096 4.38389 7.02518Z" fill="white"/>
<path d="M4.84082 11.7842C4.84082 11.1584 5.35226 10.6511 5.98315 10.6511H25.8595C26.4904 10.6511 27.0019 11.1584 27.0019 11.7842C27.0019 12.41 26.4904 12.9173 25.8595 12.9173H5.98315C5.35226 12.9173 4.84082 12.41 4.84082 11.7842Z" fill="white"/>
<path d="M25.1742 8.15827C25.805 8.15827 26.3165 7.65097 26.3165 7.02518C26.3165 6.39939 25.805 5.89208 25.1742 5.89208C24.5433 5.89208 24.0318 6.39939 24.0318 7.02518C24.0318 7.65097 24.5433 8.15827 25.1742 8.15827Z" fill="white"/>
<path fill-rule="evenodd" clip-rule="evenodd" d="M1.67484 2.25564C2.60628 0.97242 4.14867 0 6.44007 0H25.4026C26.928 0 28.4437 0.347703 29.5866 1.35104C30.7556 2.37722 31.3427 3.9181 31.3427 5.89208V14.7302C31.3427 16.2982 30.5408 17.5459 29.2572 18.3507C28.0186 19.1275 26.3534 19.4892 24.4888 19.4892H20.8333V24.0216C20.8333 24.4799 20.555 24.893 20.1282 25.0684C19.7013 25.2438 19.21 25.1469 18.8833 24.8228L13.0493 19.036H6.44007C5.48968 19.036 4.06716 18.8016 2.84155 18.0513C1.55507 17.2638 0.5 15.9035 0.5 13.8237V5.89208C0.5 4.9176 0.78533 3.48109 1.67484 2.25564ZM3.52891 3.57979C2.97909 4.33725 2.78464 5.28024 2.78464 5.89208V13.8237C2.78464 15.0073 3.32883 15.6866 4.04141 16.1228C4.81486 16.5963 5.79122 16.7698 6.44007 16.7698H13.5225C13.8254 16.7698 14.116 16.8892 14.3302 17.1017L18.5487 21.286V18.3561C18.5487 17.7303 19.0601 17.223 19.691 17.223H24.4888C26.0968 17.223 27.2874 16.9049 28.0364 16.4352C28.7405 15.9937 29.0581 15.4284 29.0581 14.7302V5.89208C29.0581 4.36468 28.617 3.52607 28.0725 3.0481C27.502 2.54729 26.6188 2.26619 25.4026 2.26619H6.44007C4.89328 2.26619 4.03679 2.8801 3.52891 3.57979Z" fill="white"/>
<path d="M34.9981 10.4245C34.3672 10.4245 33.8558 10.9318 33.8558 11.5575C33.8558 12.1833 34.3672 12.6906 34.9981 12.6906C40.2969 12.6906 45.4494 14.4145 49.6657 17.5978C53.882 20.7811 56.9294 25.2483 58.3406 30.3143C59.7519 35.3804 59.4491 40.7658 57.4787 45.6448C55.5084 50.5238 51.9791 54.6272 47.4322 57.3258C42.8852 60.0244 37.5714 61.1692 32.3055 60.5848C27.0396 60.0005 22.1123 57.7191 18.279 54.0905C14.4456 50.4619 11.9179 45.6864 11.0832 40.4961C10.2486 35.3058 11.1531 29.9872 13.6582 25.3557C13.9564 24.8043 13.7475 24.1174 13.1916 23.8215C12.6357 23.5257 11.9432 23.7329 11.645 24.2843C8.90359 29.3527 7.91371 35.1731 8.8271 40.853C9.74049 46.533 12.5067 51.759 16.7017 55.73C20.8967 59.7009 26.2889 62.1975 32.0515 62.837C37.8142 63.4765 43.6292 62.2236 48.6052 59.2704C53.5811 56.3173 57.4433 51.8268 59.5995 46.4875C61.7558 41.1482 62.0871 35.2548 60.5427 29.7107C58.9983 24.1667 55.6635 19.2782 51.0494 15.7945C46.4353 12.3109 40.7967 10.4245 34.9981 10.4245Z" fill="white"/>
<path fill-rule="evenodd" clip-rule="evenodd" d="M31.3427 36.9388C31.3427 38.8162 29.8084 40.3381 27.9157 40.3381C26.0231 40.3381 24.4888 38.8162 24.4888 36.9388C24.4888 35.0615 26.0231 33.5396 27.9157 33.5396C29.8084 33.5396 31.3427 35.0615 31.3427 36.9388ZM29.0581 36.9388C29.0581 37.5646 28.5466 38.0719 27.9157 38.0719C27.2848 38.0719 26.7734 37.5646 26.7734 36.9388C26.7734 36.313 27.2848 35.8057 27.9157 35.8057C28.5466 35.8057 29.0581 36.313 29.0581 36.9388Z" fill="white"/>
<path fill-rule="evenodd" clip-rule="evenodd" d="M45.5075 36.9388C45.5075 38.8162 43.9732 40.3381 42.0805 40.3381C40.1879 40.3381 38.6536 38.8162 38.6536 36.9388C38.6536 35.0615 40.1879 33.5396 42.0805 33.5396C43.9732 33.5396 45.5075 35.0615 45.5075 36.9388ZM43.2228 36.9388C43.2228 37.5646 42.7114 38.0719 42.0805 38.0719C41.4496 38.0719 40.9382 37.5646 40.9382 36.9388C40.9382 36.313 41.4496 35.8057 42.0805 35.8057C42.7114 35.8057 43.2228 36.313 43.2228 36.9388Z" fill="white"/>
<path fill-rule="evenodd" clip-rule="evenodd" d="M50.9906 29.4604V31.4677C51.2224 31.5249 51.4512 31.5945 51.676 31.6764C51.7602 31.7071 51.8438 31.7395 51.9268 31.7736C52.7307 32.1039 53.4611 32.588 54.0763 33.1982C54.6915 33.8085 55.1796 34.533 55.5125 35.3303C55.8455 36.1277 56.0168 36.9823 56.0168 37.8453C56.0168 38.7083 55.8455 39.5629 55.5125 40.3603C55.1796 41.1576 54.6915 41.8821 54.0763 42.4924C53.4611 43.1026 52.7307 43.5867 51.9268 43.917C51.8438 43.9511 51.7602 43.9835 51.676 44.0142C51.4512 44.0961 51.2224 44.1657 50.9906 44.2229V46.2302C50.9906 47.4818 49.9678 48.4964 48.706 48.4964H20.8333C19.5716 48.4964 18.5487 47.4818 18.5487 46.2302V44.2229C18.3169 44.1657 18.0881 44.0961 17.8633 44.0142C17.7791 43.9835 17.6955 43.9511 17.6125 43.917C16.8086 43.5867 16.0783 43.1026 15.463 42.4924C14.8478 41.8821 14.3598 41.1576 14.0268 40.3603C13.6938 39.5629 13.5225 38.7083 13.5225 37.8453C13.5225 36.9823 13.6938 36.1277 14.0268 35.3303C14.3598 34.533 14.8478 33.8085 15.463 33.1982C16.0783 32.588 16.8086 32.1039 17.6125 31.7736C17.6955 31.7395 17.7791 31.7071 17.8633 31.6764C18.0881 31.5945 18.3169 31.5249 18.5487 31.4677V29.4604C18.5487 28.2088 19.5716 27.1942 20.8333 27.1942H33.8558V24.7475C32.3964 24.2717 31.3427 22.909 31.3427 21.3021C31.3427 19.2996 32.9793 17.6763 34.9981 17.6763C37.017 17.6763 38.6536 19.2996 38.6536 21.3021C38.6536 22.909 37.5998 24.2717 36.1404 24.7475V27.1942H48.706C49.9678 27.1942 50.9906 28.2088 50.9906 29.4604ZM52.4608 34.8007C52.2235 34.5653 51.9601 34.3586 51.676 34.1842V41.5064C51.9601 41.3321 52.2235 41.1253 52.4608 40.8899C52.8639 40.4901 53.1836 40.0154 53.4018 39.493C53.6199 38.9706 53.7322 38.4107 53.7322 37.8453C53.7322 37.2799 53.6199 36.72 53.4018 36.1976C53.1836 35.6752 52.8639 35.2005 52.4608 34.8007ZM17.8633 41.5064C17.5793 41.3321 17.3158 41.1253 17.0785 40.8899C16.6754 40.4901 16.3557 40.0154 16.1375 39.493C15.9194 38.9706 15.8071 38.4107 15.8071 37.8453C15.8071 37.2799 15.9194 36.72 16.1375 36.1976C16.3557 35.6752 16.6754 35.2005 17.0785 34.8007C17.3158 34.5653 17.5793 34.3586 17.8633 34.1842L17.8633 41.5064ZM34.9981 22.6619C35.7552 22.6619 36.3689 22.0531 36.3689 21.3021C36.3689 20.5512 35.7552 19.9424 34.9981 19.9424C34.2411 19.9424 33.6273 20.5512 33.6273 21.3021C33.6273 22.0531 34.2411 22.6619 34.9981 22.6619ZM48.706 29.4604H20.8333V46.2302H48.706V29.4604Z" fill="white"/>
<path d="M64.3 9.5V2.54H66.74C67.4533 2.54 68.02 2.72333 68.44 3.09C68.8667 3.45667 69.08 3.95 69.08 4.57C69.08 5.29 68.76 5.86667 68.12 6.3C67.4867 6.72667 66.51 7.03333 65.19 7.22V9.5H64.3ZM65.19 6.41C65.91 6.29667 66.4833 6.16 66.91 6C67.3367 5.84 67.6433 5.64667 67.83 5.42C68.0167 5.19333 68.11 4.92333 68.11 4.61C68.11 3.79667 67.6433 3.39 66.71 3.39H65.19V6.41ZM73.3384 9.58C72.7118 9.58 72.1384 9.42333 71.6184 9.11C71.1051 8.79667 70.6984 8.36667 70.3984 7.82C70.1051 7.27333 69.9584 6.66667 69.9584 6C69.9584 5.34 70.1084 4.74 70.4084 4.2C70.7084 3.66 71.1151 3.23333 71.6284 2.92C72.1418 2.60667 72.7118 2.45 73.3384 2.45C73.9584 2.45 74.5251 2.60667 75.0384 2.92C75.5518 3.23333 75.9551 3.66333 76.2484 4.21C76.5484 4.75 76.6984 5.34667 76.6984 6C76.6984 6.66667 76.5484 7.27333 76.2484 7.82C75.9551 8.36667 75.5518 8.79667 75.0384 9.11C74.5251 9.42333 73.9584 9.58 73.3384 9.58ZM73.3384 8.7C73.7851 8.7 74.1918 8.58667 74.5584 8.36C74.9318 8.12667 75.2218 7.80667 75.4284 7.4C75.6418 6.98667 75.7484 6.52 75.7484 6C75.7484 5.49333 75.6418 5.03667 75.4284 4.63C75.2218 4.22333 74.9318 3.90667 74.5584 3.68C74.1918 3.44667 73.7851 3.33 73.3384 3.33C72.8851 3.33 72.4718 3.44667 72.0984 3.68C71.7251 3.90667 71.4318 4.22333 71.2184 4.63C71.0051 5.03 70.8984 5.48667 70.8984 6C70.8984 6.52 71.0051 6.98667 71.2184 7.4C71.4318 7.80667 71.7251 8.12667 72.0984 8.36C72.4718 8.58667 72.8851 8.7 73.3384 8.7ZM78.05 9.5V2.54H80.4C81.12 2.54 81.6867 2.72 82.1 3.08C82.52 3.43333 82.73 3.91333 82.73 4.52C82.73 5.38 82.2333 6.04333 81.24 6.51L83.17 9.5H82.11L80.4 6.82C80 6.93333 79.51 7.03667 78.93 7.13V9.5H78.05ZM78.93 6.33C79.9567 6.17667 80.6867 5.96 81.12 5.68C81.56 5.39333 81.78 5.02667 81.78 4.58C81.78 3.78667 81.3133 3.39 80.38 3.39H78.93V6.33ZM86.6789 9.5H85.7689V3.42H83.4089V2.54H89.0389V3.42H86.6789V9.5ZM89.261 9.5H88.291L90.991 2.54H91.991L94.701 9.5H93.691L93.001 7.66H89.941L89.261 9.5ZM91.471 3.53L90.241 6.87H92.711L91.471 3.53ZM100.175 9.5H95.7553V2.54H96.6653V8.61H100.175V9.5ZM103.597 9.5V2.54H105.897C106.584 2.54 107.194 2.69 107.727 2.99C108.267 3.28333 108.687 3.69333 108.987 4.22C109.287 4.74 109.437 5.33333 109.437 6C109.437 6.68 109.287 7.28667 108.987 7.82C108.694 8.34667 108.277 8.76 107.737 9.06C107.204 9.35333 106.59 9.5 105.897 9.5H103.597ZM105.897 8.62C106.417 8.62 106.87 8.51333 107.257 8.3C107.65 8.08667 107.954 7.78333 108.167 7.39C108.38 6.99 108.487 6.52667 108.487 6C108.487 5.48667 108.38 5.03667 108.167 4.65C107.954 4.25667 107.65 3.95333 107.257 3.74C106.87 3.52667 106.417 3.42 105.897 3.42H104.497V8.62H105.897ZM113.934 9.58C113.307 9.58 112.734 9.42333 112.214 9.11C111.701 8.79667 111.294 8.36667 110.994 7.82C110.701 7.27333 110.554 6.66667 110.554 6C110.554 5.34 110.704 4.74 111.004 4.2C111.304 3.66 111.711 3.23333 112.224 2.92C112.737 2.60667 113.307 2.45 113.934 2.45C114.554 2.45 115.121 2.60667 115.634 2.92C116.147 3.23333 116.551 3.66333 116.844 4.21C117.144 4.75 117.294 5.34667 117.294 6C117.294 6.66667 117.144 7.27333 116.844 7.82C116.551 8.36667 116.147 8.79667 115.634 9.11C115.121 9.42333 114.554 9.58 113.934 9.58ZM113.934 8.7C114.381 8.7 114.787 8.58667 115.154 8.36C115.527 8.12667 115.817 7.80667 116.024 7.4C116.237 6.98667 116.344 6.52 116.344 6C116.344 5.49333 116.237 5.03667 116.024 4.63C115.817 4.22333 115.527 3.90667 115.154 3.68C114.787 3.44667 114.381 3.33 113.934 3.33C113.481 3.33 113.067 3.44667 112.694 3.68C112.321 3.90667 112.027 4.22333 111.814 4.63C111.601 5.03 111.494 5.48667 111.494 6C111.494 6.52 111.601 6.98667 111.814 7.4C112.027 7.80667 112.321 8.12667 112.694 8.36C113.067 8.58667 113.481 8.7 113.934 8.7Z" fill="white"/>
<path d="M129.295 62.4957L128.065 54.7893L123.016 23.1527L121.786 15.4464H137.922C142.445 15.4464 146.506 16.4604 150.106 18.4884C153.707 20.4713 156.495 23.2429 158.47 26.8031C160.49 30.3634 161.5 34.3743 161.5 38.8358C161.5 43.3425 160.49 47.3984 158.47 51.0037C156.495 54.609 153.707 57.4257 150.106 59.4537C146.55 61.4817 142.488 62.4957 137.922 62.4957H129.295ZM137.922 54.7893C140.996 54.7893 143.696 54.1358 146.023 52.8289C148.35 51.522 150.15 49.6743 151.423 47.2858C152.697 44.8522 153.333 42.0355 153.333 38.8358C153.333 35.7262 152.697 32.9997 151.423 30.6563C150.15 28.2678 148.35 26.42 146.023 25.1131C143.696 23.8062 140.996 23.1527 137.922 23.1527H123.016L128.065 54.7893H137.922Z" fill="white"/>
<path d="M82.1389 62.4957C78.6263 62.4957 75.4426 61.8422 72.5887 60.1297C69.7786 58.4172 67.5614 56.0061 65.9368 52.8965C64.3123 49.7869 63.5 46.2492 63.5 42.2834C63.5 37.3261 64.5977 32.7293 66.793 28.4931C68.9883 24.2569 72.0179 20.8769 75.8817 18.3532C79.7454 15.7844 84.0922 14.5 88.9219 14.5C93.1809 14.5 97.1324 15.7619 100.777 18.2856L97.352 24.9779C94.5859 23.0401 91.5783 22.0711 88.3292 22.0711C85.2118 22.0711 82.3579 22.9499 79.7674 24.7075C77.2208 26.4651 75.2011 28.8311 73.7083 31.8055C72.2594 34.7799 71.5349 38.0472 71.5349 41.6074C71.5349 45.7084 72.6326 48.9983 74.8279 51.4769C77.0232 53.9105 79.8991 55.1273 83.4555 55.1273C84.9923 55.1273 86.5729 54.902 88.1975 54.4513C89.8659 54.0007 91.4465 53.3697 92.9394 52.5585L94.5859 59.3861C92.7857 60.4677 90.7879 61.3014 88.5926 61.8873C85.9553 62.5911 88.0662 62.4957 82.1389 62.4957Z" fill="white"/>
<path d="M93.6638 62.4957H85.4972L110.129 15.4464H119.283L126.791 62.4957H118.888L117.242 51.0037H99.4595L93.6638 62.4957ZM113.356 23.4231L102.687 44.5818H116.385L113.356 23.4231Z" fill="white"/>
</svg>
