<svg width="32" height="32" viewBox="0 0 32 32" fill="none" xmlns="http://www.w3.org/2000/svg">
<path d="M21.7279 11.1113L18.7487 9.12516L1.33203 20.8891L15.9987 30.6668L30.6654 20.8891L24.5543 16.8404L17.2209 21.8057L20.4293 23.8682L15.9987 26.5418L7.67231 20.8891L21.7279 11.1113Z" fill="#FDFEFF"/>
<path d="M7.44314 26.6182L4.38759 24.5557L1.33203 26.6182V30.6668L7.44314 26.6182Z" fill="#FDFEFF"/>
<path d="M30.6654 11.1113L15.9987 1.3335L1.33203 11.1113L7.44314 15.1599L14.7765 10.1946L11.5681 8.13211L15.9987 5.4585L24.3251 11.1113L10.2695 20.8891L13.2487 22.8752L30.6654 11.1113Z" fill="#FDFEFF"/>
<path d="M30.6654 5.38211V1.3335L24.5543 5.38211L27.6098 7.44461L30.6654 5.38211Z" fill="#FDFEFF"/>
</svg>
