<svg width="520" height="66" viewBox="0 0 520 66" fill="none" xmlns="http://www.w3.org/2000/svg">
<path d="M69.54 32.24C67.82 32.24 66.23 31.79 64.77 30.89C63.31 29.97 62.15 28.71 61.29 27.11C60.43 25.49 60 23.69 60 21.71C60 19.71 60.42 17.88 61.26 16.22C62.12 14.56 63.3 13.25 64.8 12.29C66.3 11.33 67.96 10.85 69.78 10.85C70.76 10.85 71.61 10.94 72.33 11.12C73.07 11.3 73.81 11.58 74.55 11.96L74.1 13.31C72.84 12.67 71.46 12.35 69.96 12.35C68.42 12.35 67.02 12.72 65.76 13.46C64.5 14.2 63.51 15.27 62.79 16.67C62.07 18.07 61.71 19.71 61.71 21.59C61.71 23.39 62.06 24.99 62.76 26.39C63.48 27.77 64.44 28.84 65.64 29.6C66.86 30.36 68.2 30.74 69.66 30.74C71.34 30.74 72.88 30.37 74.28 29.63L74.7 30.95C73.92 31.39 73.11 31.72 72.27 31.94C71.45 32.14 70.54 32.24 69.54 32.24ZM90.0469 32H77.0869V11.12H89.7169V12.68H78.7669V20.48H88.4269V22.04H78.7669V30.41H90.0469V32ZM93.4017 32H91.7517V11.12H93.3417L105.312 29.06V11.12H106.962V32H105.372L93.4017 14.03V32ZM117.602 32H115.922V12.68H108.752V11.12H124.802V12.68H117.602V32ZM126.589 32V11.12H133.309C135.289 11.12 136.849 11.61 137.989 12.59C139.129 13.57 139.699 14.92 139.699 16.64C139.699 18.02 139.289 19.19 138.469 20.15C137.649 21.09 136.429 21.88 134.809 22.52L140.839 32H138.859L133.219 23.06C131.899 23.48 130.239 23.88 128.239 24.26V32H126.589ZM128.239 22.79C130.499 22.37 132.319 21.92 133.699 21.44C135.099 20.96 136.159 20.35 136.879 19.61C137.619 18.85 137.989 17.89 137.989 16.73C137.989 15.39 137.579 14.37 136.759 13.67C135.959 12.97 134.789 12.62 133.249 12.62H128.239V22.79ZM142.417 32H140.677L149.077 11.12H150.667L159.037 32H157.237L154.777 25.76H144.877L142.417 32ZM149.827 13.13L145.477 24.2H154.177L149.827 13.13ZM172.523 32H160.313V11.12H161.993V30.41H172.523V32ZM179.682 32V11.12H185.682C187.742 11.12 189.572 11.54 191.172 12.38C192.772 13.2 194.022 14.4 194.922 15.98C195.822 17.54 196.272 19.38 196.272 21.5C196.272 23.66 195.822 25.54 194.922 27.14C194.022 28.72 192.772 29.93 191.172 30.77C189.572 31.59 187.742 32 185.682 32H179.682ZM185.682 30.5C187.462 30.5 189.012 30.16 190.332 29.48C191.672 28.78 192.712 27.76 193.452 26.42C194.192 25.06 194.562 23.42 194.562 21.5C194.562 19.62 194.192 18.02 193.452 16.7C192.712 15.36 191.672 14.35 190.332 13.67C188.992 12.97 187.432 12.62 185.652 12.62H181.362V30.5H185.682ZM211.819 32H198.859V11.12H211.489V12.68H200.539V20.48H210.199V22.04H200.539V30.41H211.819V32ZM218.189 32H216.449L224.849 11.12H226.439L234.809 32H233.009L230.549 25.76H220.649L218.189 32ZM225.599 13.13L221.249 24.2H229.949L225.599 13.13ZM239.976 32H238.296V12.68H231.126V11.12H247.176V12.68H239.976V32ZM261.923 32H248.963V11.12H261.593V12.68H250.643V20.48H260.303V22.04H250.643V30.41H261.923V32ZM265.278 32H263.628V11.12H265.218L277.188 29.06V11.12H278.838V32H277.248L265.278 14.03V32ZM282.248 32V11.12H288.248C290.308 11.12 292.138 11.54 293.738 12.38C295.338 13.2 296.588 14.4 297.488 15.98C298.388 17.54 298.838 19.38 298.838 21.5C298.838 23.66 298.388 25.54 297.488 27.14C296.588 28.72 295.338 29.93 293.738 30.77C292.138 31.59 290.308 32 288.248 32H282.248ZM288.248 30.5C290.028 30.5 291.578 30.16 292.898 29.48C294.238 28.78 295.278 27.76 296.018 26.42C296.758 25.06 297.128 23.42 297.128 21.5C297.128 19.62 296.758 18.02 296.018 16.7C295.278 15.36 294.238 14.35 292.898 13.67C291.558 12.97 289.998 12.62 288.218 12.62H283.928V30.5H288.248ZM303.105 32H301.425V11.12H303.105V32ZM307.469 32H305.849L308.819 11.12H310.439L317.189 27.35L324.059 11.12H325.799L328.709 32H327.089L324.599 13.46L317.879 29.33H316.439L309.929 13.76L307.469 32ZM344.418 32H331.458V11.12H344.088V12.68H333.138V20.48H342.798V22.04H333.138V30.41H344.418V32ZM347.772 32H346.122V11.12H347.712L359.682 29.06V11.12H361.332V32H359.742L347.772 14.03V32ZM371.972 32H370.292V12.68H363.122V11.12H379.172V12.68H371.972V32ZM388.499 32.24C386.619 32.24 384.919 31.79 383.399 30.89C381.879 29.97 380.679 28.7 379.799 27.08C378.939 25.44 378.509 23.58 378.509 21.5C378.509 19.48 378.949 17.66 379.829 16.04C380.709 14.42 381.909 13.15 383.429 12.23C384.949 11.31 386.639 10.85 388.499 10.85C390.359 10.85 392.039 11.31 393.539 12.23C395.059 13.13 396.249 14.39 397.109 16.01C397.989 17.63 398.429 19.46 398.429 21.5C398.429 23.56 397.989 25.41 397.109 27.05C396.249 28.67 395.059 29.94 393.539 30.86C392.039 31.78 390.359 32.24 388.499 32.24ZM388.499 30.74C390.039 30.74 391.429 30.36 392.669 29.6C393.929 28.84 394.919 27.76 395.639 26.36C396.359 24.96 396.719 23.34 396.719 21.5C396.719 19.72 396.359 18.14 395.639 16.76C394.919 15.36 393.929 14.28 392.669 13.52C391.409 12.74 390.009 12.35 388.469 12.35C386.909 12.35 385.499 12.74 384.239 13.52C382.999 14.28 382.019 15.36 381.299 16.76C380.579 18.14 380.219 19.72 380.219 21.5C380.219 23.34 380.579 24.96 381.299 26.36C382.019 27.76 382.999 28.84 384.239 29.6C385.499 30.36 386.919 30.74 388.499 30.74Z" fill="white"/>
<path d="M62.2617 60V39.12H69.5817C71.6417 39.12 73.4917 39.57 75.1317 40.47C76.7717 41.35 78.0417 42.58 78.9417 44.16C79.8617 45.74 80.3217 47.52 80.3217 49.5C80.3217 51.5 79.8617 53.3 78.9417 54.9C78.0417 56.5 76.7717 57.75 75.1317 58.65C73.5117 59.55 71.6617 60 69.5817 60H62.2617ZM69.5817 56.67C71.0017 56.67 72.2417 56.38 73.3017 55.8C74.3817 55.2 75.2117 54.36 75.7917 53.28C76.3717 52.2 76.6617 50.94 76.6617 49.5C76.6617 48.1 76.3717 46.87 75.7917 45.81C75.2117 44.75 74.3817 43.93 73.3017 43.35C72.2417 42.75 71.0017 42.45 69.5817 42.45H65.7417V56.67H69.5817ZM85.7979 60H82.3179V39.12H85.7979V60ZM97.7852 60.24C95.9052 60.24 94.2052 59.79 92.6852 58.89C91.1652 57.99 89.9652 56.73 89.0852 55.11C88.2252 53.47 87.7952 51.61 87.7952 49.53C87.7952 47.57 88.2452 45.78 89.1452 44.16C90.0652 42.52 91.3052 41.23 92.8652 40.29C94.4452 39.33 96.1852 38.85 98.0852 38.85C99.2652 38.85 100.305 38.97 101.205 39.21C102.105 39.43 102.975 39.79 103.815 40.29L102.885 43.32C101.505 42.56 99.9652 42.18 98.2652 42.18C96.9852 42.18 95.8252 42.48 94.7852 43.08C93.7452 43.66 92.9152 44.5 92.2952 45.6C91.6952 46.7 91.3952 47.98 91.3952 49.44C91.3952 50.92 91.6752 52.23 92.2352 53.37C92.8152 54.51 93.6052 55.39 94.6052 56.01C95.6252 56.63 96.7652 56.94 98.0252 56.94C99.5252 56.94 100.805 56.71 101.865 56.25V51.72H97.8152V48.57H105.285V58.29C103.025 59.59 100.525 60.24 97.7852 60.24ZM111.085 60H107.605V39.12H111.085V60ZM122.742 60H119.262V42.48H112.422V39.12H129.582V42.48H122.742V60ZM129.248 60H125.588L133.508 39.12H137.558L145.478 60H141.698L139.838 54.9H131.078L129.248 60ZM135.428 42.63L132.098 51.99H138.818L135.428 42.63ZM160.389 60H146.619V39.12H150.099V56.61H160.389V60Z" fill="white"/>
<path d="M3.50187 6.69064C3.50187 6.09465 3.963 5.61151 4.53183 5.61151H19.5693C20.1381 5.61151 20.5992 6.09465 20.5992 6.69064C20.5992 7.28663 20.1381 7.76978 19.5693 7.76978H4.53183C3.963 7.76978 3.50187 7.28663 3.50187 6.69064Z" fill="white"/>
<path d="M3.91386 11.223C3.91386 10.627 4.37499 10.1439 4.94382 10.1439H22.8652C23.434 10.1439 23.8951 10.627 23.8951 11.223C23.8951 11.819 23.434 12.3021 22.8652 12.3021H4.94382C4.37499 12.3021 3.91386 11.819 3.91386 11.223Z" fill="white"/>
<path d="M22.2472 7.76978C22.816 7.76978 23.2772 7.28663 23.2772 6.69064C23.2772 6.09465 22.816 5.61151 22.2472 5.61151C21.6784 5.61151 21.2172 6.09465 21.2172 6.69064C21.2172 7.28663 21.6784 7.76978 22.2472 7.76978Z" fill="white"/>
<path fill-rule="evenodd" clip-rule="evenodd" d="M1.05928 2.14823C1.89911 0.926114 3.28978 0 5.3558 0H22.4532C23.8285 0 25.1951 0.331145 26.2257 1.2867C27.2797 2.26402 27.809 3.73152 27.809 5.61151V14.0288C27.809 15.5221 27.0859 16.7103 25.9286 17.4769C24.8118 18.2166 23.3105 18.5611 21.6292 18.5611H18.3333V22.8777C18.3333 23.3142 18.0824 23.7077 17.6975 23.8747C17.3126 24.0417 16.8696 23.9494 16.5751 23.6408L11.3149 18.1295H5.3558C4.49889 18.1295 3.21629 17.9062 2.11123 17.1917C0.951289 16.4417 0 15.1462 0 13.1655V5.61151C0 4.68343 0.257265 3.31532 1.05928 2.14823ZM2.73098 3.40932C2.23524 4.13072 2.05992 5.0288 2.05992 5.61151V13.1655C2.05992 14.2926 2.55058 14.9396 3.19307 15.355C3.89045 15.806 4.77077 15.9712 5.3558 15.9712H11.7416C12.0147 15.9712 12.2767 16.0849 12.4699 16.2873L16.2734 20.2724V17.482C16.2734 16.886 16.7345 16.4029 17.3034 16.4029H21.6292C23.079 16.4029 24.1526 16.0999 24.8279 15.6526C25.4628 15.2321 25.7491 14.6938 25.7491 14.0288V5.61151C25.7491 4.15684 25.3514 3.35816 24.8605 2.90295C24.3461 2.42599 23.5498 2.15827 22.4532 2.15827H5.3558C3.96115 2.15827 3.18891 2.74295 2.73098 3.40932Z" fill="white"/>
<path d="M31.1049 9.92805C30.536 9.92805 30.0749 10.4112 30.0749 11.0072C30.0749 11.6032 30.536 12.0863 31.1049 12.0863C35.8824 12.0863 40.5281 13.728 44.3297 16.7598C48.1313 19.7915 50.8789 24.046 52.1514 28.8708C53.4238 33.6956 53.1508 38.8246 51.3743 43.4712C49.5977 48.1179 46.4156 52.0259 42.3159 54.596C38.2161 57.166 33.425 58.2564 28.6771 57.6999C23.9292 57.1433 19.4865 54.9706 16.0302 51.5148C12.5739 48.059 10.2948 43.5108 9.54225 38.5677C8.7897 33.6245 9.60527 28.5592 11.8639 24.1483C12.1328 23.6231 11.9445 22.9689 11.4433 22.6872C10.942 22.4054 10.3177 22.6027 10.0487 23.1279C7.577 27.955 6.6845 33.4982 7.50804 38.9076C8.33159 44.3171 10.8257 49.2943 14.6081 53.0761C18.3905 56.858 23.2522 59.2357 28.4481 59.8447C33.6439 60.4538 38.887 59.2606 43.3735 56.448C47.86 53.6355 51.3423 49.3589 53.2865 44.2738C55.2306 39.1888 55.5294 33.576 54.1369 28.296C52.7444 23.0159 49.7375 18.3602 45.5773 15.0424C41.4171 11.7247 36.3331 9.92805 31.1049 9.92805Z" fill="white"/>
<path fill-rule="evenodd" clip-rule="evenodd" d="M27.809 35.1798C27.809 36.9678 26.4256 38.4172 24.7191 38.4172C23.0126 38.4172 21.6292 36.9678 21.6292 35.1798C21.6292 33.3919 23.0126 31.9424 24.7191 31.9424C26.4256 31.9424 27.809 33.3919 27.809 35.1798ZM25.7491 35.1798C25.7491 35.7758 25.2879 36.259 24.7191 36.259C24.1503 36.259 23.6891 35.7758 23.6891 35.1798C23.6891 34.5838 24.1503 34.1007 24.7191 34.1007C25.2879 34.1007 25.7491 34.5838 25.7491 35.1798Z" fill="white"/>
<path fill-rule="evenodd" clip-rule="evenodd" d="M40.5805 35.1798C40.5805 36.9678 39.1971 38.4172 37.4906 38.4172C35.7841 38.4172 34.4007 36.9678 34.4007 35.1798C34.4007 33.3919 35.7841 31.9424 37.4906 31.9424C39.1971 31.9424 40.5805 33.3919 40.5805 35.1798ZM38.5206 35.1798C38.5206 35.7758 38.0595 36.259 37.4906 36.259C36.9218 36.259 36.4607 35.7758 36.4607 35.1798C36.4607 34.5838 36.9218 34.1007 37.4906 34.1007C38.0595 34.1007 38.5206 34.5838 38.5206 35.1798Z" fill="white"/>
<path fill-rule="evenodd" clip-rule="evenodd" d="M45.5243 28.0575V29.9692C45.7333 30.0237 45.9396 30.09 46.1423 30.168C46.2182 30.1973 46.2936 30.2281 46.3685 30.2606C47.0932 30.5751 47.7518 31.0362 48.3065 31.6174C48.8612 32.1986 49.3012 32.8886 49.6014 33.6479C49.9017 34.4073 50.0562 35.2212 50.0562 36.0431C50.0562 36.8651 49.9017 37.679 49.6014 38.4384C49.3012 39.1977 48.8612 39.8877 48.3065 40.4689C47.7518 41.0501 47.0932 41.5112 46.3685 41.8257C46.2936 41.8582 46.2182 41.889 46.1423 41.9182C45.9396 41.9963 45.7333 42.0626 45.5243 42.1171V44.0288C45.5243 45.2207 44.6021 46.187 43.4644 46.187H18.3333C17.1957 46.187 16.2734 45.2207 16.2734 44.0288V42.1171C16.0644 42.0626 15.8581 41.9963 15.6554 41.9182C15.5795 41.889 15.5041 41.8582 15.4293 41.8257C14.7045 41.5112 14.046 41.0501 13.4913 40.4689C12.9365 39.8877 12.4965 39.1977 12.1963 38.4384C11.8961 37.679 11.7416 36.8651 11.7416 36.0431C11.7416 35.2212 11.8961 34.4073 12.1963 33.6479C12.4965 32.8886 12.9365 32.1986 13.4913 31.6174C14.046 31.0362 14.7045 30.5751 15.4293 30.2606C15.5041 30.2281 15.5795 30.1973 15.6554 30.168C15.8581 30.09 16.0644 30.0237 16.2734 29.9692V28.0575C16.2734 26.8656 17.1957 25.8993 18.3333 25.8993H30.0749V23.569C28.7591 23.1159 27.809 21.8181 27.809 20.2878C27.809 18.3806 29.2846 16.8345 31.1049 16.8345C32.9251 16.8345 34.4007 18.3806 34.4007 20.2878C34.4007 21.8181 33.4507 23.1159 32.1348 23.569V25.8993H43.4644C44.6021 25.8993 45.5243 26.8656 45.5243 28.0575ZM46.8499 33.1435C46.6359 32.9193 46.3984 32.7224 46.1423 32.5564V39.5299C46.3984 39.3639 46.6359 39.167 46.8499 38.9428C47.2133 38.562 47.5016 38.1099 47.6983 37.6124C47.895 37.1149 47.9963 36.5817 47.9963 36.0431C47.9963 35.5046 47.895 34.9714 47.6983 34.4739C47.5016 33.9763 47.2133 33.5243 46.8499 33.1435ZM15.6554 39.5299C15.3993 39.3639 15.1618 39.167 14.9478 38.9428C14.5844 38.562 14.2961 38.1099 14.0994 37.6124C13.9027 37.1149 13.8015 36.5817 13.8015 36.0431C13.8015 35.5046 13.9027 34.9714 14.0994 34.4739C14.2961 33.9763 14.5844 33.5243 14.9478 33.1435C15.1618 32.9193 15.3993 32.7224 15.6554 32.5564L15.6554 39.5299ZM31.1049 21.5827C31.7875 21.5827 32.3408 21.0029 32.3408 20.2878C32.3408 19.5726 31.7875 18.9928 31.1049 18.9928C30.4223 18.9928 29.8689 19.5726 29.8689 20.2878C29.8689 21.0029 30.4223 21.5827 31.1049 21.5827ZM43.4644 28.0575H18.3333V44.0288H43.4644V28.0575Z" fill="white"/>
</svg>
